<svg width="8" height="16" viewBox="0 0 8 16" fill="none" xmlns="http://www.w3.org/2000/svg">
<path d="M7.78983 14.758L1.64212 8.51163C1.50728 8.37535 1.43166 8.19137 1.43166 7.99966C1.43166 7.80794 1.50728 7.62397 1.64212 7.48768L7.78849 1.24131C7.92325 1.10418 7.99876 0.919601 7.99876 0.727335C7.99876 0.535069 7.92325 0.350493 7.78849 0.21336C7.72266 0.145831 7.64397 0.092165 7.55708 0.055521C7.47018 0.018878 7.37682 0 7.28252 0C7.18821 0 7.09485 0.018878 7.00796 0.055521C6.92106 0.092165 6.84237 0.145831 6.77654 0.21336L0.630164 6.4584C0.226282 6.86974 0 7.42318 0 7.99966C0 8.57613 0.226282 9.12958 0.630164 9.54092L6.77654 15.786C6.84239 15.8537 6.92116 15.9075 7.00818 15.9443C7.0952 15.9811 7.18871 16 7.28318 16C7.37765 16 7.47116 15.9811 7.55818 15.9443C7.6452 15.9075 7.72397 15.8537 7.78983 15.786C7.92459 15.6488 8.0001 15.4642 8.0001 15.272C8.0001 15.0797 7.92459 14.8951 7.78983 14.758Z" fill="white"/>
</svg>
