<svg width="32" height="32" viewBox="0 0 32 32" fill="none" xmlns="http://www.w3.org/2000/svg">
<path d="M21.356 2.66669H10.596C8.49356 2.66916 6.47793 3.50554 4.99139 4.99234C3.50485 6.47913 2.6688 8.49489 2.66669 10.5974L2.66669 21.3574C2.66916 23.4598 3.50554 25.4754 4.99234 26.962C6.47913 28.4485 8.49489 29.2846 10.5974 29.2867H21.3574C23.4598 29.2842 25.4754 28.4478 26.962 26.961C28.4485 25.4742 29.2846 23.4585 29.2867 21.356V10.596C29.2842 8.49356 28.4478 6.47793 26.961 4.99139C25.4742 3.50485 23.4585 2.6688 21.356 2.66669V2.66669ZM26.6094 21.356C26.6094 22.0459 26.4735 22.729 26.2095 23.3664C25.9455 24.0037 25.5585 24.5829 25.0707 25.0707C24.5829 25.5585 24.0037 25.9455 23.3664 26.2095C22.729 26.4735 22.0459 26.6094 21.356 26.6094H10.596C9.20298 26.609 7.86712 26.0554 6.88221 25.0702C5.89731 24.0851 5.34402 22.7491 5.34402 21.356V10.596C5.34437 9.20298 5.898 7.86712 6.88316 6.88221C7.86831 5.89731 9.20431 5.34402 10.5974 5.34402H21.3574C22.7504 5.34437 24.0863 5.898 25.0712 6.88316C26.0561 7.86831 26.6094 9.20431 26.6094 10.5974V21.3574V21.356Z" fill="white"/>
<path d="M15.9764 9.09247C14.1517 9.09529 12.4025 9.82152 11.1123 11.1119C9.8221 12.4024 9.09622 14.1517 9.09375 15.9765C9.09587 17.8017 9.82178 19.5516 11.1123 20.8423C12.4028 22.1331 14.1525 22.8593 15.9777 22.8618C17.8032 22.8597 19.5533 22.1336 20.8441 20.8428C22.1349 19.552 22.861 17.8019 22.8631 15.9765C22.8603 14.1512 22.1337 12.4016 20.8427 11.1114C19.5517 9.82114 17.8016 9.09557 15.9764 9.0938V9.09247ZM15.9764 20.1845C14.8607 20.1845 13.7908 19.7413 13.0019 18.9524C12.213 18.1635 11.7698 17.0935 11.7698 15.9778C11.7698 14.8621 12.213 13.7921 13.0019 13.0032C13.7908 12.2143 14.8607 11.7711 15.9764 11.7711C17.0921 11.7711 18.1621 12.2143 18.951 13.0032C19.7399 13.7921 20.1831 14.8621 20.1831 15.9778C20.1831 17.0935 19.7399 18.1635 18.951 18.9524C18.1621 19.7413 17.0921 20.1845 15.9764 20.1845Z" fill="white"/>
<path d="M22.8785 10.7935C23.7894 10.7935 24.5279 10.055 24.5279 9.14415C24.5279 8.23324 23.7894 7.49481 22.8785 7.49481C21.9676 7.49481 21.2292 8.23324 21.2292 9.14415C21.2292 10.055 21.9676 10.7935 22.8785 10.7935Z" fill="white"/>
</svg>
