<svg width="43" height="84" viewBox="0 0 43 84" fill="none" xmlns="http://www.w3.org/2000/svg">
<path d="M0.429367 68.4821V69.3497H1.52912V69.7133H0.429367V71.2293H0V68.0965H1.9366V68.4821H0.429367ZM4.03895 71.2293L3.20429 69.8842C3.10864 69.8842 2.95747 69.8769 2.75082 69.863V71.2293H2.32146V68.0936C2.33748 68.0936 2.44847 68.0885 2.65443 68.0776C2.86107 68.0666 3.01077 68.0615 3.105 68.0615C3.85933 68.0615 4.23616 68.3616 4.23616 68.9612C4.23616 69.1583 4.1755 69.3358 4.05428 69.4935C3.93307 69.6513 3.78924 69.7491 3.622 69.7878L4.52971 71.2293H4.03895ZM2.75082 68.477V69.4994C2.85307 69.5133 2.95311 69.5205 3.05023 69.5205C3.30654 69.5205 3.49273 69.4789 3.60958 69.3964C3.72641 69.3131 3.78486 69.1649 3.78486 68.9517C3.78486 68.7757 3.72204 68.6493 3.59718 68.572C3.47156 68.4945 3.27369 68.4559 3.00275 68.4559C2.96038 68.4559 2.87642 68.4631 2.75082 68.477ZM6.63282 71.2293L6.41595 70.5677H5.24389L5.01168 71.2293H4.5341L5.80908 68.0527H5.92302L7.10601 71.2293H6.63282ZM5.84634 68.8765L5.35783 70.2522H6.29327L5.84634 68.8765ZM9.46252 71.2731L7.84136 68.9816V71.2293H7.43391V68.0965H7.60479L9.18213 70.2654V68.0965H9.58959V71.2731H9.46252ZM11.9607 71.2293L11.0771 69.7878L10.6594 70.3801V71.2293H10.23V68.0965H10.6594V69.8017L11.8249 68.0965H12.3025L11.3641 69.4548L12.4339 71.2293H11.9607ZM12.7523 71.2293V68.0965H13.1817V70.8437H14.5969V71.2293H12.7523ZM15.0452 71.2293V68.0965H15.4746V71.2293H15.0452ZM18.2189 71.2731L16.5977 68.9816V71.2293H16.1903V68.0965H16.3611L17.9385 70.2654V68.0965H18.3459V71.2731H18.2189ZM0.0744535 76.317V73.1842H0.503841V76.317H0.0744535ZM3.36354 76.3608L1.74241 74.0693V76.317H1.33496V73.1842H1.50581L3.08317 75.353V73.1842H3.49061V76.3608H3.36354ZM5.39007 73.5697V76.317H4.9607V73.5697H3.96172V73.1842H6.43285V73.5697H5.39007ZM7.3348 73.5697V74.4373H8.34691V74.801H7.3348V75.9314H8.75441V76.317H6.90544V73.1842H8.75441V73.5697H7.3348ZM11.1073 76.317L10.2727 74.9719C10.177 74.9719 10.0259 74.9645 9.81921 74.9507V76.317H9.38984V73.1813C9.40586 73.1813 9.51686 73.1762 9.72282 73.1652C9.92946 73.1542 10.0791 73.1491 10.1734 73.1491C10.9277 73.1491 11.3045 73.4493 11.3045 74.0488C11.3045 74.246 11.2439 74.4234 11.1227 74.5812C11.0015 74.7389 10.8576 74.8367 10.6904 74.8755L11.5981 76.317H11.1073ZM9.81921 73.5646V74.587C9.92145 74.6009 10.0215 74.6082 10.1186 74.6082C10.3749 74.6082 10.5611 74.5666 10.678 74.484C10.7948 74.4008 10.8533 74.2526 10.8533 74.0393C10.8533 73.8633 10.7904 73.737 10.6656 73.6596C10.5399 73.5822 10.3421 73.5435 10.0711 73.5435C10.0288 73.5435 9.9448 73.5508 9.81921 73.5646ZM12.1079 76.317V73.1842H12.5373V76.317H12.1079ZM13.2194 74.7228C13.2194 74.2693 13.3333 73.8903 13.5612 73.5851C13.7883 73.2799 14.0957 73.1273 14.482 73.1273C14.9172 73.1273 15.2509 73.2675 15.4831 73.5486C15.7147 73.8297 15.8308 74.2212 15.8308 74.7228C15.8308 75.2376 15.7147 75.6407 15.4817 75.9321C15.2495 76.2235 14.9157 76.3695 14.482 76.3695C14.0869 76.3695 13.778 76.2154 13.5546 75.9073C13.3311 75.5999 13.2194 75.2048 13.2194 74.7228ZM13.6707 74.7228C13.6707 75.0821 13.7415 75.3815 13.8832 75.6225C14.0249 75.8635 14.225 75.984 14.4827 75.984C14.7741 75.984 14.9968 75.8737 15.1502 75.6524C15.3028 75.4319 15.3795 75.1215 15.3795 74.7228C15.3795 73.9159 15.0808 73.5128 14.4827 73.5128C14.2176 73.5128 14.0161 73.6209 13.8781 73.8377C13.74 74.0547 13.6707 74.3497 13.6707 74.7228ZM18.1756 76.317L17.341 74.9719C17.2453 74.9719 17.0942 74.9645 16.8875 74.9507V76.317H16.4581V73.1813C16.4742 73.1813 16.5851 73.1762 16.7911 73.1652C16.9978 73.1542 17.1474 73.1491 17.2417 73.1491C17.996 73.1491 18.3728 73.4493 18.3728 74.0488C18.3728 74.246 18.3122 74.4234 18.191 74.5812C18.0697 74.7389 17.9259 74.8367 17.7587 74.8755L18.6664 76.317H18.1756ZM16.8875 73.5646V74.587C16.9898 74.6009 17.0898 74.6082 17.1869 74.6082C17.4432 74.6082 17.6294 74.5666 17.7462 74.484C17.8631 74.4008 17.9215 74.2526 17.9215 74.0393C17.9215 73.8633 17.8587 73.737 17.7339 73.6596C17.6082 73.5822 17.4104 73.5435 17.1394 73.5435C17.0971 73.5435 17.0131 73.5508 16.8875 73.5646ZM0.630892 81.4046H0V78.2711C0.402332 78.2572 0.659407 78.2499 0.772569 78.2499C1.21 78.2499 1.55685 78.3829 1.81245 78.6486C2.06732 78.9145 2.19509 79.2686 2.19509 79.7104C2.19509 80.8401 1.67368 81.4046 0.630892 81.4046ZM0.429367 78.6567V80.9978C0.525031 81.0117 0.642588 81.019 0.783517 81.019C1.08219 81.019 1.31736 80.9066 1.48748 80.6824C1.65836 80.4582 1.74384 80.1464 1.74384 79.7469C1.74384 79.0058 1.41154 78.6355 0.747014 78.6355C0.707582 78.6355 0.601702 78.6428 0.429367 78.6567ZM4.08975 78.6575V79.525H5.10185V79.8887H4.08975V81.0191H5.50935V81.4047H3.66038V78.2719H5.50935V78.6575H4.08975ZM6.84031 81.2601L6.99657 80.8657C7.0769 80.9242 7.17693 80.9731 7.29599 81.0125C7.41573 81.052 7.52235 81.0717 7.61653 81.0717C7.78375 81.0717 7.91814 81.0257 8.01964 80.9344C8.12115 80.8431 8.17227 80.727 8.17227 80.5861C8.17227 80.4802 8.14377 80.3823 8.08754 80.2918C8.03129 80.2012 7.88895 80.1026 7.6618 79.9953L7.4084 79.8777C7.19374 79.7777 7.04401 79.6594 6.95931 79.5229C6.87388 79.3856 6.83151 79.2205 6.83151 79.0284C6.83151 78.794 6.91478 78.5998 7.08053 78.4457C7.24629 78.2916 7.45879 78.215 7.71951 78.215C8.06635 78.215 8.3081 78.2712 8.44391 78.3844L8.31758 78.7582C8.2606 78.7167 8.17297 78.6758 8.05612 78.637C7.93859 78.5983 7.83049 78.5786 7.73047 78.5786C7.58443 78.5786 7.46975 78.6203 7.38652 78.7028C7.30252 78.7853 7.2609 78.8919 7.2609 79.0219C7.2609 79.1015 7.27621 79.1745 7.3062 79.2402C7.33613 79.3059 7.37773 79.3607 7.43107 79.4045C7.48435 79.4491 7.59464 79.5112 7.75967 79.5907L8.0167 79.7134C8.23141 79.8142 8.3811 79.9354 8.468 80.0756C8.55416 80.2166 8.59727 80.3947 8.59727 80.6116C8.59727 80.8475 8.5023 81.0469 8.3132 81.2112C8.12405 81.3755 7.87065 81.4573 7.55375 81.4573C7.27553 81.4573 7.03748 81.3916 6.84031 81.2601ZM10.1356 81.4047V78.2719H10.5649V81.4047H10.1356ZM14.4269 78.4866L14.2495 78.8393C14.034 78.6801 13.823 78.6005 13.6163 78.6005C13.2885 78.6005 13.03 78.7159 12.8401 78.9474C12.6509 79.1782 12.556 79.4841 12.556 79.8653C12.556 80.2275 12.6488 80.5189 12.835 80.7401C13.0204 80.9614 13.2731 81.0717 13.5937 81.0717C13.8215 81.0717 14.0055 81.003 14.1465 80.8665V80.1341H13.7127V79.7704H14.5758V81.1345C14.462 81.2316 14.3027 81.309 14.099 81.3682C13.8945 81.4273 13.6967 81.4573 13.5039 81.4573C13.0715 81.4573 12.7306 81.3105 12.4801 81.0176C12.2296 80.7241 12.1047 80.3341 12.1047 79.8478C12.1047 79.3629 12.242 78.9693 12.5166 78.6677C12.7912 78.3661 13.1621 78.215 13.6287 78.215C13.9552 78.215 14.2217 78.3055 14.4269 78.4866ZM18.2187 81.4485L16.5976 79.157V81.4047H16.1901V78.2719H16.361L17.9384 80.4407V78.2719H18.3458V81.4485H18.2187Z" fill="url(#paint0_linear_756_1362)"/>
<path d="M43.0007 83.2551V82.3748C40.1387 82.3322 37.2339 81.0868 34.2864 77.883C32.6204 76.0889 29.5786 72.4126 25.905 67.1582C24.2224 64.8448 21.5876 62.7922 19.0264 61.597C22.8772 61.776 27.5541 61.1197 29.8708 58.8006C32.059 56.814 33.5826 53.9821 33.6791 50.7471C33.7396 48.7183 33.4163 47.11 32.036 44.5512C28.9804 40.0526 25.1175 39.5986 20.1225 39.5986H7.72665L7.56577 41.13L14.8077 41.1668C16.7301 41.1241 18.9331 41.1338 20.2574 41.2192C23.3302 41.5834 24.6789 42.689 26.1563 44.197C28.2481 46.8542 29.3653 50.2963 27.8486 54.042C26.4442 56.9881 25.0093 57.8158 23.4243 58.6438C21.8394 59.4717 19.5611 59.9648 17.2424 60.0657H13.8464L13.8535 61.6612C17.9122 61.6917 19.8725 64.4523 21.7815 67.2206C22.0807 67.6478 22.5078 68.2458 23.0632 69.0147L24.4399 71.1189C27.0458 74.878 28.5094 76.8533 28.7659 77.1522C29.4067 77.9212 30.0046 78.5619 30.56 79.0745C34.613 82.9025 37.9039 83.1602 43.0007 83.2551Z" fill="url(#paint1_linear_756_1362)"/>
<path d="M29.2776 7.01155H28.2064V6.82692C28.2548 3.44693 26.3216 1.63643 24.0423 1.63069L19.3308 1.61888L12.7454 1.64408L12.7222 41.1604L2.78449 41.1352L2.7606 40.3014L3.59394 40.2943C5.87098 40.2754 7.69632 38.7437 7.69632 36.0145L7.69102 4.79865C7.69102 2.70665 5.99194 0.838312 3.58864 0.8265L2.75586 0.822389L2.78449 0.0134853H21.5658L29.1935 0L29.2776 7.01155Z" fill="url(#paint2_linear_756_1362)"/>
<path d="M17.8739 22.077C16.3355 22.077 15.0883 20.8298 15.0883 19.2914C15.0883 17.7529 16.3355 16.5058 17.8739 16.5058C19.4124 16.5058 20.6595 17.7529 20.6595 19.2914C20.6595 20.8298 19.4124 22.077 17.8739 22.077Z" fill="url(#paint3_linear_756_1362)"/>
<mask id="mask0_756_1362" style="mask-type:alpha" maskUnits="userSpaceOnUse" x="2" y="0" width="41" height="84">
<path d="M43.0007 83.2551V82.3748C40.1387 82.3322 37.2339 81.0868 34.2864 77.883C32.6204 76.0889 29.5786 72.4126 25.905 67.1582C24.2224 64.8448 21.5876 62.7922 19.0264 61.597C22.8772 61.776 27.5541 61.1197 29.8708 58.8006C32.059 56.814 33.5826 53.9821 33.6791 50.7471C33.7396 48.7183 33.4163 47.11 32.036 44.5512C28.9804 40.0526 25.1175 39.5986 20.1225 39.5986H7.72665L7.56577 41.13L14.8077 41.1668C16.7301 41.1241 18.9331 41.1338 20.2574 41.2192C23.3302 41.5834 24.6789 42.689 26.1563 44.197C28.2481 46.8542 29.3653 50.2963 27.8486 54.042C26.4442 56.9881 25.0093 57.8158 23.4243 58.6438C21.8394 59.4717 19.5611 59.9648 17.2424 60.0657H13.8464L13.8535 61.6612C17.9122 61.6917 19.8725 64.4523 21.7815 67.2206C22.0807 67.6478 22.5078 68.2458 23.0632 69.0147L24.4399 71.1189C27.0458 74.878 28.5094 76.8533 28.7659 77.1522C29.4067 77.9212 30.0046 78.5619 30.56 79.0745C34.613 82.9025 37.9039 83.1602 43.0007 83.2551Z" fill="url(#paint4_linear_756_1362)"/>
<path d="M29.2776 7.01155H28.2064V6.82692C28.2548 3.44693 26.3216 1.63643 24.0423 1.63069L19.3308 1.61888L12.7454 1.64408L12.7222 41.1604L2.78449 41.1352L2.7606 40.3014L3.59394 40.2943C5.87098 40.2754 7.69632 38.7437 7.69632 36.0145L7.69102 4.79865C7.69102 2.70665 5.99194 0.838312 3.58864 0.8265L2.75586 0.822389L2.78449 0.0134853H21.5658L29.1935 0L29.2776 7.01155Z" fill="url(#paint5_linear_756_1362)"/>
<path d="M17.8739 22.077C16.3355 22.077 15.0883 20.8298 15.0883 19.2914C15.0883 17.7529 16.3355 16.5058 17.8739 16.5058C19.4124 16.5058 20.6595 17.7529 20.6595 19.2914C20.6595 20.8298 19.4124 22.077 17.8739 22.077Z" fill="url(#paint6_linear_756_1362)"/>
</mask>
<g mask="url(#mask0_756_1362)">
<rect x="-28.7578" y="2.95898" width="40.6951" height="23.5586" transform="rotate(-34.0857 -28.7578 2.95898)" fill="url(#paint7_linear_756_1362)"/>
</g>
<defs>
<linearGradient id="paint0_linear_756_1362" x1="52.1599" y1="105.21" x2="59.2633" y2="116.578" gradientUnits="userSpaceOnUse">
<stop stop-color="#909395"/>
<stop offset="1" stop-color="white"/>
</linearGradient>
<linearGradient id="paint1_linear_756_1362" x1="55.2316" y1="81.3146" x2="106.363" y2="118.919" gradientUnits="userSpaceOnUse">
<stop stop-color="#909395"/>
<stop offset="1" stop-color="white"/>
</linearGradient>
<linearGradient id="paint2_linear_756_1362" x1="55.2316" y1="81.3146" x2="106.363" y2="118.919" gradientUnits="userSpaceOnUse">
<stop stop-color="#909395"/>
<stop offset="1" stop-color="white"/>
</linearGradient>
<linearGradient id="paint3_linear_756_1362" x1="55.2316" y1="81.3146" x2="106.363" y2="118.919" gradientUnits="userSpaceOnUse">
<stop stop-color="#909395"/>
<stop offset="1" stop-color="white"/>
</linearGradient>
<linearGradient id="paint4_linear_756_1362" x1="7.55571" y1="5.68655" x2="34.8512" y2="72.7066" gradientUnits="userSpaceOnUse">
<stop stop-color="#6D7683"/>
<stop offset="0.121084" stop-color="#838B97"/>
<stop offset="0.253354" stop-color="#B1B7BD"/>
<stop offset="0.374663" stop-color="#C3C6CC"/>
<stop offset="0.483689" stop-color="#F9F9F9"/>
<stop offset="0.568166" stop-color="#C1C4CA"/>
<stop offset="0.681199" stop-color="#959CA5"/>
<stop offset="0.808158" stop-color="#6D7683"/>
<stop offset="0.916233" stop-color="#5F6672"/>
</linearGradient>
<linearGradient id="paint5_linear_756_1362" x1="7.55571" y1="5.68655" x2="34.8512" y2="72.7066" gradientUnits="userSpaceOnUse">
<stop stop-color="#6D7683"/>
<stop offset="0.121084" stop-color="#838B97"/>
<stop offset="0.253354" stop-color="#B1B7BD"/>
<stop offset="0.374663" stop-color="#C3C6CC"/>
<stop offset="0.483689" stop-color="#F9F9F9"/>
<stop offset="0.568166" stop-color="#C1C4CA"/>
<stop offset="0.681199" stop-color="#959CA5"/>
<stop offset="0.808158" stop-color="#6D7683"/>
<stop offset="0.916233" stop-color="#5F6672"/>
</linearGradient>
<linearGradient id="paint6_linear_756_1362" x1="7.55571" y1="5.68655" x2="34.8512" y2="72.7066" gradientUnits="userSpaceOnUse">
<stop stop-color="#6D7683"/>
<stop offset="0.121084" stop-color="#838B97"/>
<stop offset="0.253354" stop-color="#B1B7BD"/>
<stop offset="0.374663" stop-color="#C3C6CC"/>
<stop offset="0.483689" stop-color="#F9F9F9"/>
<stop offset="0.568166" stop-color="#C1C4CA"/>
<stop offset="0.681199" stop-color="#959CA5"/>
<stop offset="0.808158" stop-color="#6D7683"/>
<stop offset="0.916233" stop-color="#5F6672"/>
</linearGradient>
<linearGradient id="paint7_linear_756_1362" x1="-1.91028" y1="2.95898" x2="-1.91028" y2="26.5176" gradientUnits="userSpaceOnUse">
<stop stop-color="white" stop-opacity="0"/>
<stop offset="0.24" stop-color="white" stop-opacity="0.25"/>
<stop offset="0.5" stop-color="white"/>
<stop offset="0.75" stop-color="white" stop-opacity="0.25"/>
<stop offset="1" stop-color="white" stop-opacity="0"/>
</linearGradient>
</defs>
</svg>
