<svg width="69" height="70" viewBox="0 0 69 70" fill="none" xmlns="http://www.w3.org/2000/svg">
<g filter="url(#filter0_d_1112_6325)">
<rect x="5" y="4" width="60" height="60" rx="30" fill="url(#paint0_linear_1112_6325)"/>
<mask id="mask0_1112_6325" style="mask-type:alpha" maskUnits="userSpaceOnUse" x="28" y="33" width="17" height="21">
<path d="M44.8943 53.2568V52.8495C43.5701 52.8298 42.2262 52.2536 40.8624 50.7713C40.0916 49.9412 38.6843 48.2403 36.9846 45.8093C36.2061 44.739 34.9871 43.7893 33.8021 43.2363C35.5837 43.3191 37.7476 43.0155 38.8195 41.9425C39.8319 41.0234 40.5368 39.7131 40.5814 38.2164C40.6095 37.2777 40.4599 36.5336 39.8212 35.3498C38.4075 33.2684 36.6203 33.0583 34.3093 33.0583H28.5741L28.4996 33.7669L31.8502 33.7839C32.7397 33.7641 33.7589 33.7686 34.3716 33.8081C35.7933 33.9766 36.4173 34.4881 37.1009 35.1858C38.0687 36.4152 38.5856 38.0078 37.8839 39.7408C37.2341 41.1039 36.5702 41.4869 35.8369 41.8699C35.1036 42.253 34.0495 42.4811 32.9767 42.5278H31.4055L31.4088 43.266C33.2866 43.2801 34.1936 44.5573 35.0768 45.8381C35.2152 46.0358 35.4129 46.3125 35.6698 46.6682L36.3068 47.6418C37.5124 49.381 38.1896 50.2949 38.3083 50.4332C38.6047 50.789 38.8814 51.0854 39.1383 51.3226C41.0135 53.0937 42.5361 53.2129 44.8943 53.2568Z" fill="url(#paint1_linear_1112_6325)"/>
</mask>
<g mask="url(#mask0_1112_6325)">
<path d="M44.8943 53.2568V52.8495C43.5701 52.8298 42.2262 52.2536 40.8624 50.7713C40.0916 49.9412 38.6843 48.2403 36.9846 45.8093C36.2061 44.739 34.9871 43.7893 33.8021 43.2363C35.5837 43.3191 37.7476 43.0155 38.8195 41.9425C39.8319 41.0234 40.5368 39.7131 40.5814 38.2164C40.6095 37.2777 40.4599 36.5336 39.8212 35.3498C38.4075 33.2684 36.6203 33.0583 34.3093 33.0583H28.5741L28.4996 33.7669L31.8502 33.7839C32.7397 33.7641 33.7589 33.7686 34.3716 33.8081C35.7933 33.9766 36.4173 34.4881 37.1009 35.1858C38.0687 36.4152 38.5856 38.0078 37.8839 39.7408C37.2341 41.1039 36.5702 41.4869 35.8369 41.8699C35.1036 42.253 34.0495 42.4811 32.9767 42.5278H31.4055L31.4088 43.266C33.2866 43.2801 34.1936 44.5573 35.0768 45.8381C35.2152 46.0358 35.4129 46.3125 35.6698 46.6682L36.3068 47.6418C37.5124 49.381 38.1896 50.2949 38.3083 50.4332C38.6047 50.789 38.8814 51.0854 39.1383 51.3226C41.0135 53.0937 42.5361 53.2129 44.8943 53.2568Z" fill="url(#paint2_linear_1112_6325)"/>
</g>
<mask id="mask1_1112_6325" style="mask-type:alpha" maskUnits="userSpaceOnUse" x="26" y="14" width="13" height="20">
<path d="M38.5449 17.9813H38.0493V17.8959C38.0717 16.3321 37.1773 15.4944 36.1227 15.4918L33.9429 15.4863L30.896 15.498L30.8947 23.1044V23.9941L30.8853 33.7809L26.2874 33.7693L26.2764 33.3835L26.6619 33.3802C27.7154 33.3715 28.56 32.6628 28.56 31.4001L28.5575 16.9575C28.5575 15.9896 27.7714 15.1252 26.6595 15.1197L26.2742 15.1178L26.2874 14.7435H34.9769L38.506 14.7373L38.5449 17.9813Z" fill="url(#paint3_linear_1112_6325)"/>
</mask>
<g mask="url(#mask1_1112_6325)">
<path d="M38.5449 17.9813H38.0493V17.8959C38.0717 16.3321 37.1773 15.4944 36.1227 15.4918L33.9429 15.4863L30.896 15.498L30.8947 23.1044V23.9941L30.8853 33.7809L26.2874 33.7693L26.2764 33.3835L26.6619 33.3802C27.7154 33.3715 28.56 32.6628 28.56 31.4001L28.5575 16.9575C28.5575 15.9896 27.7714 15.1252 26.6595 15.1197L26.2742 15.1178L26.2874 14.7435H34.9769L38.506 14.7373L38.5449 17.9813Z" fill="url(#paint4_linear_1112_6325)"/>
</g>
<mask id="mask2_1112_6325" style="mask-type:alpha" maskUnits="userSpaceOnUse" x="31" y="22" width="4" height="3">
<path d="M33.2793 24.9824C32.5675 24.9824 31.9905 24.4054 31.9905 23.6936C31.9905 22.9818 32.5675 22.4048 33.2793 22.4048C33.9911 22.4048 34.5681 22.9818 34.5681 23.6936C34.5681 24.4054 33.9911 24.9824 33.2793 24.9824Z" fill="url(#paint5_linear_1112_6325)"/>
</mask>
<g mask="url(#mask2_1112_6325)">
<path d="M33.2689 24.9517C32.5571 24.9517 31.9801 24.3746 31.9801 23.6628C31.9801 22.9511 32.5571 22.374 33.2689 22.374C33.9807 22.374 34.5577 22.9511 34.5577 23.6628C34.5577 24.3746 33.9807 24.9517 33.2689 24.9517Z" fill="url(#paint6_linear_1112_6325)"/>
</g>
<path d="M25.1982 46.4219V46.8233H25.707V46.9916H25.1982V47.693H24.9995V46.2435H25.8955V46.4219H25.1982ZM26.8682 47.693L26.482 47.0706C26.4378 47.0706 26.3678 47.0673 26.2722 47.0608V47.693H26.0736V46.2422C26.081 46.2422 26.1323 46.2398 26.2276 46.2348C26.3232 46.2297 26.3925 46.2273 26.4361 46.2273C26.7851 46.2273 26.9594 46.3662 26.9594 46.6436C26.9594 46.7348 26.9314 46.8169 26.8753 46.8899C26.8192 46.9629 26.7527 47.0081 26.6753 47.026L27.0953 47.693H26.8682ZM26.2722 46.4196V46.8926C26.3195 46.899 26.3658 46.9024 26.4108 46.9024C26.5293 46.9024 26.6155 46.8831 26.6695 46.8449C26.7236 46.8064 26.7506 46.7378 26.7506 46.6392C26.7506 46.5577 26.7216 46.4993 26.6638 46.4635C26.6057 46.4277 26.5141 46.4098 26.3888 46.4098C26.3692 46.4098 26.3303 46.4132 26.2722 46.4196ZM28.0683 47.693L27.968 47.3869H27.4257L27.3183 47.693H27.0973L27.6872 46.2233H27.7399L28.2872 47.693H28.0683ZM27.7044 46.6044L27.4784 47.2409H27.9112L27.7044 46.6044ZM29.3775 47.7132L28.6275 46.653V47.693H28.4389V46.2435H28.518L29.2478 47.247V46.2435H29.4363V47.7132H29.3775ZM30.5333 47.693L30.1245 47.026L29.9313 47.3V47.693H29.7326V46.2435H29.9313V47.0325L30.4705 46.2435H30.6915L30.2573 46.872L30.7523 47.693H30.5333ZM30.8996 47.693V46.2435H31.0983V47.5146H31.753V47.693H30.8996ZM31.9605 47.693V46.2435H32.1591V47.693H31.9605ZM33.4288 47.7132L32.6788 46.653V47.693H32.4902V46.2435H32.5693L33.2991 47.247V46.2435H33.4876V47.7132H33.4288ZM25.034 50.0469V48.5974H25.2326V50.0469H25.034ZM26.5557 50.0671L25.8057 49.0069V50.0469H25.6172V48.5974H25.6962L26.426 49.6009V48.5974H26.6145V50.0671H26.5557ZM27.4933 48.7758V50.0469H27.2947V48.7758H26.8325V48.5974H27.9758V48.7758H27.4933ZM28.3931 48.7758V49.1772H28.8614V49.3455H28.3931V49.8685H29.0499V50.0469H28.1944V48.5974H29.0499V48.7758H28.3931ZM30.1385 50.0469L29.7524 49.4245C29.7081 49.4245 29.6382 49.4211 29.5425 49.4147V50.0469H29.3439V48.5961C29.3513 48.5961 29.4027 48.5937 29.498 48.5886C29.5936 48.5836 29.6628 48.5812 29.7064 48.5812C30.0554 48.5812 30.2298 48.7201 30.2298 48.9975C30.2298 49.0887 30.2017 49.1708 30.1456 49.2438C30.0895 49.3168 30.023 49.362 29.9456 49.3799L30.3656 50.0469H30.1385ZM29.5425 48.7735V49.2465C29.5899 49.2529 29.6361 49.2563 29.6811 49.2563C29.7997 49.2563 29.8858 49.237 29.9399 49.1988C29.9939 49.1603 30.021 49.0917 30.021 48.9931C30.021 48.9116 29.9919 48.8532 29.9341 48.8174C29.876 48.7816 29.7845 48.7637 29.6591 48.7637C29.6395 48.7637 29.6007 48.767 29.5425 48.7735ZM30.6014 50.0469V48.5974H30.8001V50.0469H30.6014ZM31.1157 49.3093C31.1157 49.0995 31.1684 48.9241 31.2738 48.7829C31.3789 48.6417 31.5211 48.5711 31.6999 48.5711C31.9012 48.5711 32.0556 48.636 32.1631 48.766C32.2702 48.8961 32.3239 49.0772 32.3239 49.3093C32.3239 49.5475 32.2702 49.734 32.1624 49.8688C32.055 50.0036 31.9006 50.0712 31.6999 50.0712C31.5171 50.0712 31.3742 49.9999 31.2708 49.8573C31.1674 49.7151 31.1157 49.5323 31.1157 49.3093ZM31.3245 49.3093C31.3245 49.4755 31.3573 49.6141 31.4228 49.7255C31.4884 49.8371 31.5809 49.8928 31.7002 49.8928C31.835 49.8928 31.9381 49.8418 32.009 49.7394C32.0796 49.6374 32.1151 49.4938 32.1151 49.3093C32.1151 48.936 31.9769 48.7495 31.7002 48.7495C31.5776 48.7495 31.4843 48.7995 31.4205 48.8998C31.3566 49.0002 31.3245 49.1367 31.3245 49.3093ZM33.4088 50.0469L33.0226 49.4245C32.9784 49.4245 32.9084 49.4211 32.8128 49.4147V50.0469H32.6142V48.5961C32.6216 48.5961 32.6729 48.5937 32.7682 48.5886C32.8638 48.5836 32.9331 48.5812 32.9767 48.5812C33.3257 48.5812 33.5 48.7201 33.5 48.9975C33.5 49.0887 33.472 49.1708 33.4159 49.2438C33.3598 49.3168 33.2933 49.362 33.2159 49.3799L33.6359 50.0469H33.4088ZM32.8128 48.7735V49.2465C32.8601 49.2529 32.9064 49.2563 32.9514 49.2563C33.0699 49.2563 33.1561 49.237 33.2101 49.1988C33.2642 49.1603 33.2912 49.0917 33.2912 48.9931C33.2912 48.9116 33.2622 48.8532 33.2044 48.8174C33.1463 48.7816 33.0547 48.7637 32.9294 48.7637C32.9098 48.7637 32.8709 48.767 32.8128 48.7735ZM25.2914 52.4007H24.9995V50.951C25.1857 50.9446 25.3046 50.9412 25.357 50.9412C25.5593 50.9412 25.7198 51.0027 25.8381 51.1257C25.956 51.2486 26.0151 51.4125 26.0151 51.6169C26.0151 52.1396 25.7739 52.4007 25.2914 52.4007ZM25.1982 51.1294V52.2126C25.2424 52.219 25.2968 52.2224 25.362 52.2224C25.5002 52.2224 25.609 52.1703 25.6877 52.0666C25.7668 51.9629 25.8063 51.8186 25.8063 51.6338C25.8063 51.2909 25.6526 51.1196 25.3451 51.1196C25.3269 51.1196 25.2779 51.1229 25.1982 51.1294ZM26.8917 51.1297V51.5311H27.36V51.6994H26.8917V52.2224H27.5485V52.4008H26.6931V50.9513H27.5485V51.1297H26.8917ZM28.1643 52.3339L28.2366 52.1514C28.2738 52.1785 28.32 52.2011 28.3751 52.2194C28.4305 52.2376 28.4799 52.2467 28.5234 52.2467C28.6008 52.2467 28.663 52.2254 28.7099 52.1832C28.7569 52.141 28.7806 52.0873 28.7806 52.0221C28.7806 51.9731 28.7674 51.9278 28.7414 51.8859C28.7153 51.844 28.6495 51.7984 28.5444 51.7487L28.4271 51.6943C28.3278 51.648 28.2586 51.5933 28.2194 51.5301C28.1798 51.4666 28.1602 51.3902 28.1602 51.3014C28.1602 51.1929 28.1988 51.1031 28.2755 51.0318C28.3521 50.9605 28.4505 50.925 28.5711 50.925C28.7316 50.925 28.8434 50.951 28.9062 51.0034L28.8478 51.1764C28.8214 51.1571 28.7809 51.1382 28.7268 51.1203C28.6724 51.1024 28.6224 51.0933 28.5762 51.0933C28.5086 51.0933 28.4555 51.1125 28.417 51.1507C28.3782 51.1889 28.3589 51.2382 28.3589 51.2983C28.3589 51.3352 28.366 51.369 28.3799 51.3994C28.3937 51.4298 28.413 51.4551 28.4376 51.4754C28.4623 51.496 28.5133 51.5247 28.5897 51.5615L28.7086 51.6183C28.8079 51.6649 28.8772 51.721 28.9174 51.7859C28.9573 51.8511 28.9772 51.9335 28.9772 52.0339C28.9772 52.143 28.9333 52.2352 28.8458 52.3113C28.7583 52.3873 28.641 52.4251 28.4944 52.4251C28.3657 52.4251 28.2555 52.3947 28.1643 52.3339ZM29.6889 52.4008V50.9513H29.8876V52.4008H29.6889ZM31.6744 51.0507L31.5923 51.2139C31.4926 51.1402 31.395 51.1034 31.2994 51.1034C31.1477 51.1034 31.0281 51.1568 30.9402 51.2639C30.8527 51.3707 30.8088 51.5122 30.8088 51.6886C30.8088 51.8561 30.8517 51.991 30.9378 52.0933C31.0237 52.1957 31.1406 52.2467 31.2889 52.2467C31.3943 52.2467 31.4794 52.215 31.5446 52.1518V51.8129H31.344V51.6447H31.7433V52.2758C31.6906 52.3207 31.6169 52.3565 31.5227 52.3839C31.4281 52.4113 31.3365 52.4251 31.2473 52.4251C31.0473 52.4251 30.8895 52.3572 30.7736 52.2217C30.6578 52.0859 30.6 51.9055 30.6 51.6805C30.6 51.4561 30.6635 51.274 30.7905 51.1345C30.9176 50.9949 31.0892 50.925 31.3051 50.925C31.4561 50.925 31.5794 50.9669 31.6744 51.0507ZM33.4287 52.421L32.6787 51.3609V52.4008H32.4902V50.9513H32.5692L33.299 51.9548V50.9513H33.4875V52.421H33.4287Z" fill="url(#paint7_linear_1112_6325)"/>
</g>
<defs>
<filter id="filter0_d_1112_6325" x="0.157894" y="0.842105" width="68.4211" height="68.4211" filterUnits="userSpaceOnUse" color-interpolation-filters="sRGB">
<feFlood flood-opacity="0" result="BackgroundImageFix"/>
<feColorMatrix in="SourceAlpha" type="matrix" values="0 0 0 0 0 0 0 0 0 0 0 0 0 0 0 0 0 0 127 0" result="hardAlpha"/>
<feMorphology radius="0.631579" operator="dilate" in="SourceAlpha" result="effect1_dropShadow_1112_6325"/>
<feOffset dx="-0.631579" dy="1.05263"/>
<feGaussianBlur stdDeviation="1.78947"/>
<feComposite in2="hardAlpha" operator="out"/>
<feColorMatrix type="matrix" values="0 0 0 0 0 0 0 0 0 0 0 0 0 0 0 0 0 0 0.2 0"/>
<feBlend mode="normal" in2="BackgroundImageFix" result="effect1_dropShadow_1112_6325"/>
<feBlend mode="normal" in="SourceGraphic" in2="effect1_dropShadow_1112_6325" result="shape"/>
</filter>
<linearGradient id="paint0_linear_1112_6325" x1="10.6842" y1="16.2632" x2="60.4211" y2="50" gradientUnits="userSpaceOnUse">
<stop stop-color="#484848"/>
<stop offset="0.261066" stop-color="#3A3A3A"/>
<stop offset="0.492555" stop-color="#1E1E1E"/>
<stop offset="0.760809" stop-color="#141615"/>
<stop offset="1" stop-color="#141615"/>
</linearGradient>
<linearGradient id="paint1_linear_1112_6325" x1="49.8768" y1="52.786" x2="62.5881" y2="68.4832" gradientUnits="userSpaceOnUse">
<stop stop-color="#909395"/>
<stop offset="1" stop-color="white"/>
</linearGradient>
<linearGradient id="paint2_linear_1112_6325" x1="49.8768" y1="52.786" x2="62.5881" y2="68.4832" gradientUnits="userSpaceOnUse">
<stop stop-color="#909395"/>
<stop offset="1" stop-color="white"/>
</linearGradient>
<linearGradient id="paint3_linear_1112_6325" x1="100.557" y1="-10.5605" x2="90.4657" y2="-26.7104" gradientUnits="userSpaceOnUse">
<stop stop-color="#929194"/>
<stop offset="1" stop-color="white"/>
</linearGradient>
<linearGradient id="paint4_linear_1112_6325" x1="100.557" y1="-10.5605" x2="90.4657" y2="-26.7104" gradientUnits="userSpaceOnUse">
<stop stop-color="#929194"/>
<stop offset="1" stop-color="white"/>
</linearGradient>
<linearGradient id="paint5_linear_1112_6325" x1="35.7866" y1="25.3365" x2="37.9666" y2="28.005" gradientUnits="userSpaceOnUse">
<stop stop-color="#909395"/>
<stop offset="1" stop-color="white"/>
</linearGradient>
<linearGradient id="paint6_linear_1112_6325" x1="46.9021" y1="43.0138" x2="48.5931" y2="44.9592" gradientUnits="userSpaceOnUse">
<stop stop-color="#D6D6D7"/>
<stop offset="1" stop-color="white"/>
</linearGradient>
<linearGradient id="paint7_linear_1112_6325" x1="49.1323" y1="63.4148" x2="52.4187" y2="68.6742" gradientUnits="userSpaceOnUse">
<stop stop-color="#909395"/>
<stop offset="1" stop-color="white"/>
</linearGradient>
</defs>
</svg>
