<svg width="100" height="100" viewBox="0 0 100 100" fill="none" xmlns="http://www.w3.org/2000/svg">
<path d="M0 100V50V0H100.146V100H0Z" fill="#1D1D1F"/>
<path d="M48.6539 32.801C48.6393 29.8624 48.6978 27.6548 48.7709 27.5963C48.844 27.5232 49.2241 27.5232 49.6334 27.567C50.0282 27.6109 52.9814 27.6548 61.9873 27.6548L62.0165 32.6548C62.0457 35.8127 62.1188 37.6694 62.2066 37.6986C62.2797 37.7132 63.5077 35.798 64.9112 33.4296C67.3381 29.3214 67.4843 29.1167 67.7621 29.3068C67.9229 29.4238 70.4522 30.9735 73.3908 32.7717C76.3294 34.5553 78.7416 36.032 78.7563 36.0466C78.7709 36.0466 77.8791 37.5378 76.768 39.3507C75.6568 41.1635 73.4785 44.7162 71.9142 47.2454C70.3644 49.7746 68.4054 52.9618 67.572 54.336C66.7241 55.7103 65.4229 57.8448 64.6481 59.0875C63.8878 60.3302 62.8791 61.9822 61.5633 64.1314L61.5487 68.0056H59.2095L58.5077 69.1021C58.1276 69.7015 57.7475 70.2863 57.6744 70.4179C57.5428 70.608 57.3527 70.5495 55.0428 69.2045L53.4346 70.1694L52.8206 69.2045C52.4697 68.6635 52.1919 68.1811 52.1919 68.1226C52.1919 68.0495 45.2767 67.991 21.4609 67.9325L21.4756 61.7922C21.4902 58.415 21.5048 55.6372 21.534 55.6226C21.5487 55.608 23.7563 55.5934 26.4171 55.5934C29.0925 55.5787 31.2855 55.5495 31.2855 55.5056C31.2855 55.4618 29.3703 54.336 27.0311 52.991C23.8294 51.1343 22.806 50.4764 22.8791 50.3156C22.9229 50.1986 23.7709 48.722 24.7358 47.0261C25.7153 45.3448 27.1481 42.8594 29.3118 39.0875L32.7475 41.0612C34.6335 42.1577 36.3001 43.0641 36.4317 43.0934C36.5779 43.1226 36.6949 43.1226 36.6949 43.0787C36.6949 43.0349 36.037 41.953 35.2329 40.6665C34.4288 39.3799 33.4492 37.7863 33.0545 37.1284C32.3966 36.032 32.3527 35.9004 32.572 35.7542C32.7036 35.6665 34.9258 34.2922 37.4989 32.6986C40.072 31.1051 42.3089 29.7162 42.4697 29.5992C42.7475 29.4238 42.8352 29.5115 43.9317 31.1197C44.5604 32.07 45.1451 32.8594 45.2036 32.8887C45.2621 32.9033 45.3206 32.9764 45.3206 33.0641C45.3206 33.1518 46.0223 34.2629 46.8849 35.5495C47.7621 36.8507 48.5077 37.9033 48.5662 37.8887C48.6393 37.8887 48.6685 35.5934 48.6539 32.801Z" fill="#FEFEFE"/>
<path d="M49.9964 33.7961V31.3546V28.8984L55.1426 28.9423C57.9789 28.9569 60.3912 29.0008 60.4789 29.0446C60.6251 29.1031 60.669 29.7172 60.669 33.7961H49.9964Z" fill="#1D1D1F"/>
<path d="M65.5228 35.1119C65.5081 35.0388 66.0198 34.0885 66.6631 32.992C67.3064 31.9101 67.8766 31.0183 67.9058 31.0183C67.9497 31.0183 69.207 31.7786 70.7128 32.685C72.2333 33.5914 74.1777 34.7903 75.0695 35.3312C75.9467 35.8721 76.7362 36.3546 76.8093 36.4131C76.8678 36.4569 76.4877 37.261 75.9321 38.1821C75.3912 39.1177 74.821 40.0534 74.4116 40.6674L71.8093 39.0885C70.3912 38.2113 68.4029 36.9979 67.3941 36.3838C66.3853 35.7552 65.552 35.1996 65.5228 35.1119Z" fill="#1D1D1F"/>
<path d="M34.3239 36.2522C34.4263 36.1499 36.2391 35.0095 38.3444 33.6938C40.4497 32.3926 42.204 31.3253 42.2479 31.3253C42.2918 31.3253 42.3941 31.3692 42.4818 31.4277C42.5695 31.4862 43.169 32.3487 45.0257 35.1119L44.4701 35.4628C44.1777 35.6528 42.5842 36.6324 40.9321 37.6557C39.2801 38.6645 37.8912 39.4979 37.8181 39.4979C37.7596 39.4979 37.5111 39.6733 37.2771 39.8633C37.0286 40.068 36.7508 40.2288 36.6485 40.2288C36.5608 40.2288 35.9467 39.3809 35.3035 38.3283C34.3532 36.7932 34.1631 36.3984 34.3239 36.2522Z" fill="#1D1D1F"/>
<path d="M50.0695 39.2786L50.0257 37.2025L49.9818 35.1119H60.669V39.3517L50.0695 39.2786Z" fill="#1D1D1F"/>
<path d="M41.0052 39.1324C42.935 37.9481 44.7771 36.8224 45.0988 36.6324C45.4204 36.4569 45.7567 36.2961 45.8298 36.2961C45.9175 36.2961 46.4292 37.0417 46.9847 37.9335C47.6475 39.0349 47.9399 39.6489 47.8619 39.7756C47.7888 39.8926 47.3649 40.1704 46.9263 40.4189C46.4877 40.6674 45.9613 40.9891 45.7567 41.1499C45.552 41.2961 45.3181 41.4277 45.2157 41.4131C45.1134 41.4131 45.0111 41.4715 44.9964 41.5446C44.9672 41.6031 43.7537 42.3926 42.2918 43.299C40.8152 44.1908 39.5578 44.9072 39.4847 44.878C39.397 44.8633 38.8853 44.1324 38.3298 43.2405C37.7742 42.3487 37.3649 41.5593 37.4087 41.4715C37.4526 41.3692 39.0754 40.3312 41.0052 39.1324Z" fill="#1D1D1F"/>
<path d="M63.6076 38.1528C64.1046 37.3341 64.5871 36.6177 64.6748 36.5593C64.7625 36.5008 64.8649 36.4423 64.9087 36.4423C64.9526 36.4423 66.897 37.6119 69.2216 39.0446C71.8093 40.6382 73.476 41.7493 73.5052 41.8955C73.5198 42.0271 73.169 42.7581 72.7157 43.4891L72.6258 43.6324C72.1929 44.3226 71.8037 44.943 71.7216 45.0388C71.59 45.1996 71.4146 45.1411 70.8298 44.8049C70.435 44.571 69.3824 43.9277 68.4906 43.3867C67.6134 42.8458 65.976 41.8517 64.8795 41.1791C63.7684 40.5066 62.8327 39.8926 62.7888 39.8049C62.745 39.7172 63.1251 38.9862 63.6076 38.1528Z" fill="#1D1D1F"/>
<path d="M50.1426 44.7756V42.7288V40.6821H55.3327C58.1836 40.6821 60.5228 40.7113 60.5228 40.7552C60.5228 40.799 59.9818 41.7201 58.1105 44.7902L50.1426 44.7756Z" fill="#1D1D1F"/>
<path d="M24.6456 49.8926C24.6894 49.7756 25.859 47.7142 27.2333 45.3166C28.6075 42.9335 29.7918 40.9745 29.8502 40.9745C29.9233 40.9745 30.4497 41.2522 31.0344 41.5885C31.6192 41.9101 32.2918 42.3195 32.5257 42.4949C32.7742 42.6704 32.9935 42.8019 33.0374 42.8166C33.0812 42.8166 33.2274 42.875 33.3736 42.9189C33.5491 42.992 33.5929 43.109 33.5344 43.3429C33.4906 43.5329 32.2918 45.5651 30.8736 47.8897C29.4555 50.1996 28.2274 52.0856 28.1397 52.0856C28.0666 52.0856 27.2187 51.6324 26.283 51.0914C25.0257 50.375 24.5871 50.0534 24.6456 49.8926Z" fill="#1D1D1F"/>
<path d="M59.9672 44.3224C59.9964 44.2639 60.435 43.5037 60.9613 42.5973C61.4877 41.7055 61.9409 40.9745 61.9847 40.9745C62.0286 40.9745 64.0023 42.1587 66.3707 43.6207C68.7391 45.068 70.7274 46.3107 70.7859 46.3546C70.8444 46.4131 70.4643 47.1441 69.9526 47.992C69.4409 48.84 68.9292 49.5856 68.8269 49.6587C68.6953 49.7464 67.8035 49.2786 66.0783 48.2113C64.6748 47.3487 62.7157 46.1353 61.7216 45.5212C60.7421 44.9072 59.9526 44.3663 59.9672 44.3224Z" fill="#1D1D1F"/>
<path d="M43.7099 43.9715C45.5228 42.875 47.2918 41.7786 47.6573 41.5446C48.0228 41.3107 48.4029 41.1207 48.5052 41.1207C48.6368 41.1207 48.6806 41.6908 48.6806 45.8721L47.7742 46.4423C47.2625 46.7639 45.859 47.6265 44.6309 48.3867C43.4029 49.1324 42.3795 49.7318 42.3356 49.7025C42.3064 49.6879 41.8093 48.8838 41.2391 47.9189C40.6543 46.954 40.2304 46.1207 40.3035 46.0768C40.3619 46.0183 41.897 45.0826 43.7099 43.9715Z" fill="#1D1D1F"/>
<path d="M30.1573 51.5446C30.5812 50.8867 31.8093 48.8984 32.8766 47.1148C33.9584 45.3458 34.8795 43.8984 34.9233 43.8984C34.9818 43.8984 35.5666 44.2201 36.2537 44.6148C36.9409 44.9949 37.7157 45.4335 37.9789 45.5943C38.2274 45.7405 38.476 45.9306 38.5052 46.0183C38.5344 46.106 38.0374 47.0271 37.3941 48.0651C36.7654 49.1031 36.1806 49.9511 36.1075 49.9218C36.0198 49.9072 35.9906 49.9511 36.0344 50.0388C36.0783 50.1265 35.5812 51.0622 34.9233 52.1148C34.2801 53.1821 33.5929 54.2786 33.0374 55.0095L31.2245 53.9423C30.2157 53.3721 29.397 52.8604 29.397 52.8166C29.397 52.7727 29.7333 52.2025 30.1573 51.5446Z" fill="#1D1D1F"/>
<path d="M58.052 47.5095C58.5491 46.6908 59.0461 45.9306 59.1777 45.8429C59.3678 45.6821 59.4847 45.7113 59.8502 45.9306C60.0988 46.0768 61.9847 47.2318 64.0315 48.4891C66.0783 49.7464 67.8181 50.8575 67.8912 50.9598C67.9643 51.0768 67.6573 51.7055 67.0286 52.7435C66.4877 53.6353 66.0052 54.4101 65.9614 54.4686C65.9029 54.5417 63.8999 53.3867 61.5023 51.9101C59.1192 50.4481 57.1602 49.1908 57.1602 49.1177C57.1602 49.0593 57.5695 48.3429 58.052 47.5095Z" fill="#1D1D1F"/>
<path d="M50.1426 50.185V48.1382V46.0914H53.7245C55.6982 46.0914 57.3064 46.1207 57.3064 46.1645C57.3064 46.2084 56.7801 47.1294 54.9672 50.185H50.1426Z" fill="#1D1D1F"/>
<path d="M44.8064 49.8195C45.7274 49.2493 46.9555 48.4891 47.5403 48.109C48.1105 47.7435 48.6368 47.4657 48.7099 47.4949C48.783 47.5242 48.8415 48.5768 48.8268 52.0856L48.359 52.4218C48.0959 52.6119 47.321 53.109 46.6339 53.5183C45.9467 53.9277 45.3327 54.2639 45.245 54.2639C45.1719 54.2639 44.7625 53.6938 44.3385 52.992C43.9146 52.2902 43.5637 51.6762 43.5637 51.6031C43.5637 51.5446 43.4613 51.3984 43.3444 51.2815C43.2274 51.1645 43.1251 51.0183 43.1251 50.9452C43.1251 50.8867 43.8853 50.3897 44.8064 49.8195Z" fill="#1D1D1F"/>
<path d="M34.4409 55.5651C34.4555 55.4628 35.5374 53.6207 36.8532 51.4569C38.169 49.3078 39.2947 47.5534 39.3678 47.5534C39.4263 47.5534 39.9672 48.3575 40.5812 49.337C41.1806 50.3312 41.6485 51.2376 41.6192 51.3546C41.59 51.4715 40.7274 52.9481 39.6748 54.6148C38.6368 56.2815 37.7596 57.6557 37.7157 57.6411C37.6719 57.6411 36.9263 57.2171 36.0344 56.7055C35.1573 56.1938 34.4409 55.6821 34.4409 55.5651Z" fill="#1D1D1F"/>
<path d="M55.3327 52.1002C55.4204 51.9686 55.669 51.5446 55.8883 51.1645C56.1075 50.7844 56.3707 50.4774 56.473 50.4774C56.5754 50.4774 57.4672 50.9891 58.476 51.6031C59.4847 52.2171 61.4146 53.4014 65.2011 55.7405L64.2362 57.3049C63.7099 58.1821 63.1982 58.9715 63.1105 59.0739C62.9789 59.2201 62.0871 58.7376 58.6953 56.6616C56.3561 55.2288 54.4263 54.0008 54.3824 53.9423C54.3385 53.8692 54.514 53.4891 54.7479 53.0797C54.9964 52.685 55.2596 52.2464 55.3327 52.1002Z" fill="#1D1D1F"/>
<path d="M50.2596 54.5417C50.2011 53.7961 50.1426 52.8019 50.1426 52.3341V51.5008H52.1163C53.1982 51.5008 54.09 51.53 54.09 51.5739C54.09 51.6177 53.5344 52.5973 51.6046 55.8867H50.3619L50.2596 54.5417Z" fill="#1D1D1F"/>
<path d="M39.0023 58.3136C38.9877 58.2405 39.7479 56.9394 40.6982 55.4189C41.6485 53.8984 42.4672 52.6557 42.5257 52.6557C42.5695 52.6557 42.8912 53.109 43.2274 53.6499C43.5783 54.1908 43.8561 54.7171 43.8561 54.8195C43.8561 54.9218 43.9146 54.9949 43.973 54.9949C44.0315 54.9949 44.2947 55.3604 44.5578 55.799C44.9672 56.5008 45.0111 56.6616 44.8649 56.9394C44.7625 57.1148 44.2362 58.0066 42.6865 60.5505L40.859 59.4979C39.8649 58.9131 39.0169 58.3867 39.0023 58.3136Z" fill="#1D1D1F"/>
<path d="M46.0637 55.5505C46.0637 55.4481 46.6631 54.9949 47.3941 54.5271L48.7245 53.6938L48.8415 55.0388C48.8999 55.7844 48.9584 56.837 48.9584 57.378C48.973 58.3575 48.973 58.3721 48.5052 58.5622C48.1543 58.7084 47.9789 58.723 47.8619 58.606C47.7742 58.5183 47.3356 57.8312 46.8824 57.0856C46.4292 56.34 46.0491 55.6528 46.0637 55.5505Z" fill="#1D1D1F"/>
<path d="M50.9175 59.571C52.2187 57.3487 53.3736 55.4481 53.476 55.3312C53.6368 55.185 53.7391 55.185 54.0608 55.3604C54.2801 55.4774 56.1953 56.647 58.3152 57.9481C60.435 59.2639 62.1748 60.4043 62.1748 60.4774C62.1602 60.5651 61.0198 62.4803 57.0871 68.8546L56.3561 68.416C55.9613 68.1674 54.3532 67.2318 52.7742 66.3253C51.2099 65.4189 49.6017 64.4978 49.2216 64.2639C48.8268 64.03 48.5052 63.7961 48.5198 63.7376C48.5345 63.6791 49.6163 61.8078 50.9175 59.571Z" fill="#1D1D1F"/>
<path d="M22.7304 66.6177L22.7011 61.7639L22.6719 56.8955H27.0432V66.6908L22.7304 66.6177Z" fill="#1D1D1F"/>
<path d="M28.4321 66.6324L28.4029 61.7639L28.359 56.9101H32.5988V66.7055L28.4321 66.6324Z" fill="#1D1D1F"/>
<path d="M34.0023 66.6177L33.9584 61.9101C33.9292 58.1821 33.9584 57.1879 34.1046 57.1879C34.207 57.1879 34.6163 57.3926 35.0257 57.6265C35.4204 57.875 35.8444 58.1236 35.976 58.1967C36.0929 58.2698 36.6631 58.606 38.3152 59.5271V66.6908L34.0023 66.6177Z" fill="#1D1D1F"/>
<path d="M43.8999 61.1938C43.8853 61.1645 44.2654 60.4628 44.7625 59.6294C45.4204 58.5183 45.7128 58.1382 45.8736 58.1967C46.0052 58.2552 46.5608 59.0446 48.1397 61.647L47.8619 62.1294C47.7157 62.3926 47.4672 62.6996 47.3064 62.8166C47.0432 62.992 46.8532 62.9189 45.4789 62.1294C44.6309 61.647 43.9292 61.2376 43.8999 61.1938Z" fill="#1D1D1F"/>
<path d="M39.6309 66.6908L39.6163 63.4891L39.6017 60.2727L43.7976 62.6996L43.8707 66.6908H39.6309Z" fill="#1D1D1F"/>
<path d="M45.1573 65.2581C45.1426 64.4686 45.1865 63.7815 45.2596 63.723C45.3327 63.6645 45.4204 63.6499 45.4643 63.6645C45.5081 63.6938 46.3561 64.1616 47.3356 64.7318C49.0315 65.7113 49.1192 65.7698 49.1339 66.7055H45.1865L45.1573 65.2581Z" fill="#1D1D1F"/>
<path d="M54.2646 60.1254C54.4547 60.0085 54.8056 59.8623 55.0395 59.8184C55.2734 59.7599 55.6389 59.7453 55.8436 59.7892C56.0483 59.8184 56.3699 59.95 56.5746 60.067C56.7793 60.1839 57.0717 60.4617 57.2325 60.6664C57.3933 60.9003 57.5395 61.3681 57.5687 61.7921C57.598 62.3477 57.5395 62.6401 57.3202 63.0055C57.1448 63.2541 56.7939 63.605 56.5453 63.7658C56.2822 63.9266 55.8436 64.0582 55.595 64.0582C55.3319 64.0582 54.8933 63.9705 54.6448 63.8535C54.3816 63.7512 54.0015 63.4734 53.7968 63.2541C53.5336 62.9763 53.4167 62.6547 53.3728 62.1137C53.329 61.5289 53.3874 61.2365 53.6214 60.8418C53.7822 60.564 54.0746 60.2424 54.2646 60.1254Z" fill="#FEFEFE"/>
<path d="M54.7095 61.7929C54.7388 61.5151 54.8703 61.2958 55.0896 61.1935C55.2797 61.0912 55.5429 61.0473 55.6744 61.0912C55.806 61.1496 56.0107 61.252 56.113 61.3397C56.2154 61.4274 56.3031 61.6759 56.2885 61.9099C56.2885 62.1292 56.1861 62.4069 56.0546 62.5239C55.9376 62.6409 55.6744 62.7432 55.4698 62.7432C55.2797 62.7432 55.0165 62.6262 54.885 62.4947C54.7534 62.3338 54.6803 62.0561 54.7095 61.7929Z" fill="#1D1D1F"/>
</svg>
