<svg width="100" height="100" viewBox="0 0 100 100" fill="none" xmlns="http://www.w3.org/2000/svg">
<path d="M0 100V50V0H100V100H0Z" fill="#1D1D1F"/>
<path d="M29.4707 32.4493V29.9201V27.5078H71.2225V32.6248L66.04 32.6979V40.3002L67.7189 40.3733V43.0049L68.332 43.3996C68.6824 43.6043 69.3539 44.1891 69.8357 44.6862C70.3174 45.1979 71.0181 46.1482 72.0984 48.0487V56.4552L71.7043 56.7914C71.4707 56.9815 70.8722 57.2739 70.3466 57.4347C69.8211 57.6102 68.9014 57.8295 68.3028 57.9172C67.6313 58.0341 66.1568 58.0634 64.4342 58.0341C62.4634 57.9903 61.3393 57.8879 60.5656 57.6979C59.9671 57.5663 59.2371 57.3324 58.9598 57.1862C58.6824 57.04 58.3174 56.7768 58.1568 56.6014C57.8795 56.2944 57.8649 56.0312 57.8211 52.3762C57.7919 50.2417 57.8065 48.3411 57.8503 48.1657C57.8941 47.9757 58.3174 47.2593 58.7992 46.5575C59.2663 45.8411 60.0692 44.8762 60.5802 44.4084C61.0911 43.9406 61.8649 43.3558 63.0473 42.7125V40.3733L64.7262 40.3002V32.6979L51.6605 32.6248V55.8704L53.3393 55.9435L53.4853 58.6189L54.3612 59.2768C54.843 59.6277 55.4123 60.1248 55.6459 60.3879C55.8649 60.6365 56.2882 61.2213 56.6094 61.6745C56.916 62.1423 57.3101 62.8002 57.4853 63.1511C57.7773 63.7359 57.7919 63.9844 57.7919 67.7417C57.8065 71.4259 57.7773 71.7622 57.5291 72.0985C57.3831 72.3031 56.9014 72.6248 56.4634 72.8148C56.0254 73.0049 55.1787 73.2534 54.5802 73.385C53.8357 73.5312 52.5948 73.6043 50.7116 73.6189C49.0181 73.6189 47.5729 73.5458 46.989 73.4435C46.4634 73.3412 45.6459 73.1365 45.1641 72.9757C44.6094 72.8002 44.1422 72.5371 43.4853 71.8061V67.7856C43.4853 63.9844 43.4999 63.7359 43.7919 63.1511C43.9671 62.8002 44.3904 62.1277 44.7262 61.6452C45.0619 61.1628 45.7627 60.3879 46.2736 59.9055C46.7846 59.4376 47.5145 58.8967 48.5948 58.3558V55.8704H50.3466V32.6248H34.2882V46.6599H36.04L36.0254 49.3645L36.8576 49.9493C37.3101 50.271 38.0254 50.9289 38.4488 51.4113C38.8722 51.8938 39.4707 52.7125 40.3466 54.1891L40.4196 62.6686L39.9379 63.1072C39.6459 63.385 39.0619 63.6628 38.3758 63.8675C37.7773 64.0575 36.624 64.2768 35.8211 64.3645C34.9744 64.4669 33.4999 64.4961 32.3174 64.4523C31.1933 64.4084 29.7481 64.2622 29.1057 64.1306C28.4634 63.9844 27.6751 63.7651 27.3539 63.6335C27.0327 63.4873 26.624 63.1803 26.4342 62.9464C26.113 62.5224 26.0984 62.464 26.113 54.4815L26.7846 53.3119C27.2079 52.5955 27.8941 51.7183 28.5802 51.0458C29.2371 50.3879 29.9963 49.7885 31.2079 49.2183L31.2225 46.6599H32.9744V32.6248L31.2225 32.5809C30.259 32.5663 29.4707 32.5078 29.4707 32.4493Z" fill="#FEFEFE"/>
<path d="M30.7795 31.2073C30.7649 31.1342 30.7503 30.5786 30.7357 29.9499L30.7065 28.8242H69.9036V31.3096H50.3416C39.5825 31.3096 30.7795 31.2657 30.7795 31.2073Z" fill="#1D1D1F"/>
<path d="M65.1591 42.4061C64.4 42.4061 64.3562 42.3915 64.3562 42.0406C64.3562 41.6897 64.3854 41.6751 66.4 41.6751V42.1137C66.4 42.4499 66.3416 42.5377 66.181 42.4792C66.0642 42.4499 65.5971 42.4061 65.1591 42.4061Z" fill="#1D1D1F"/>
<path d="M62.5314 44.4821C62.7649 44.3505 63.2321 44.1312 63.5533 43.985C63.9766 43.795 64.4292 43.7365 65.2321 43.7657C66.0496 43.795 66.5022 43.8973 67.0423 44.1751C67.4365 44.3652 68.0934 44.833 68.4876 45.1839C68.8817 45.5494 69.4657 46.2073 69.7576 46.6459C70.0496 47.0991 70.4146 47.6839 70.5606 47.9616C70.7795 48.4149 70.8087 48.8535 70.7941 51.3973C70.7649 53.0055 70.7503 54.3359 70.7357 54.3652C70.7211 54.3798 70.3708 54.2921 69.9766 54.1751C69.5679 54.0581 68.7795 53.8827 68.2248 53.8096C67.6554 53.7219 66.2102 53.6634 65.0131 53.6634C63.8014 53.6634 62.327 53.7365 61.7284 53.8242C61.1299 53.9119 60.3124 54.0728 59.9328 54.1897C59.5533 54.3067 59.2467 54.3798 59.2467 54.3652C59.2467 54.3505 59.2321 52.9763 59.1737 48.3271L59.6846 47.523C59.962 47.0845 60.619 46.2804 61.1445 45.7248C61.6554 45.1692 62.2832 44.6137 62.5314 44.4821Z" fill="#1D1D1F"/>
<path d="M33.6263 48.8096C32.5314 48.7804 32.5314 48.7657 32.5314 48.371V47.9616H34.7211V48.8388L33.6263 48.8096Z" fill="#1D1D1F"/>
<path d="M30.9255 50.7833C31.2905 50.5786 31.8744 50.3154 32.2394 50.2131C32.6044 50.1108 33.2467 50.0669 33.6992 50.1108C34.1372 50.14 34.8379 50.3447 35.2613 50.5347C35.6846 50.7394 36.4 51.2511 36.8525 51.6605C37.3051 52.0845 37.9912 52.9178 39.1007 54.5552V60.8418L38.6919 60.6809C38.473 60.5932 37.8306 60.4324 37.2759 60.3154C36.7065 60.1985 35.3051 60.0669 34.1372 60.023C32.619 59.9499 31.5387 59.9938 30.3416 60.1546C29.4219 60.2716 28.3854 60.4763 27.4219 60.8418V57.8447C27.4219 55.14 27.4511 54.7891 27.7138 54.2628C27.8744 53.9412 28.2978 53.3125 28.6628 52.8739C29.0277 52.4353 29.5241 51.8652 29.7868 51.6312C30.0496 51.3827 30.5606 51.0026 30.9255 50.7833Z" fill="#1D1D1F"/>
<path d="M60.9985 55.257C61.3635 55.1839 62.473 55.0669 63.4803 55.0084C64.4876 54.9646 65.67 54.9353 66.108 54.9646C66.546 54.9792 67.4073 55.0669 68.0058 55.14C68.6044 55.2131 69.4365 55.3739 69.8598 55.5055C70.2832 55.6225 70.6336 55.7833 70.6336 55.871C70.6336 55.9441 70.2832 56.1195 69.8598 56.2365C69.4365 56.3681 68.6773 56.5289 68.1518 56.6166C67.6263 56.7043 66.181 56.7628 64.9401 56.7628C63.6263 56.7628 62.181 56.6751 61.5095 56.5435C60.8671 56.4266 60.1518 56.2657 59.9328 56.178C59.7138 56.0903 59.5387 55.9441 59.5387 55.871C59.5387 55.7833 59.7138 55.6517 59.9328 55.564C60.1518 55.4909 60.6336 55.3447 60.9985 55.257Z" fill="#1D1D1F"/>
<path d="M50.9547 57.9909C49.9036 57.9909 49.9036 57.9909 49.9036 57.5815V57.1868H52.0934L52.0496 57.5815C52.0204 57.9909 52.0058 57.9909 50.9547 57.9909Z" fill="#1D1D1F"/>
<path d="M48.254 59.9938C48.6336 59.7891 49.2175 59.526 49.5387 59.409C49.8744 59.3067 50.473 59.2628 50.9985 59.3067C51.5387 59.3505 52.1956 59.526 52.7503 59.8037C53.3197 60.0815 53.9182 60.5494 54.5022 61.1634C54.9839 61.6751 55.6263 62.523 56.473 63.9704V67.0114C56.473 69.8476 56.4584 70.0377 56.2102 69.9061C56.0788 69.833 55.4073 69.6575 54.7211 69.5113C53.7576 69.3067 52.8379 69.2482 50.6336 69.2482C48.4 69.2482 47.5095 69.3067 46.546 69.5113C45.8598 69.6575 45.2029 69.7891 45.0861 69.8037C44.8963 69.8184 44.8525 69.3944 44.7795 63.9704L45.3343 63.0494C45.6409 62.5377 46.2686 61.7336 46.7211 61.2511C47.1883 60.7833 47.8744 60.2131 48.254 59.9938Z" fill="#1D1D1F"/>
<path d="M28.5314 61.8213C28.9985 61.6751 29.8452 61.4997 30.4146 61.4412C30.9693 61.3681 32.1518 61.3096 33.0423 61.295C33.9182 61.2804 35.2321 61.3388 35.962 61.4412C36.6773 61.5289 37.5971 61.7043 37.9912 61.8359C38.3854 61.9675 38.7357 62.1429 38.7649 62.216C38.7941 62.3037 38.4292 62.4792 37.9766 62.6108C37.5095 62.757 36.619 62.9324 35.9912 63.0201C35.3781 63.1078 34.1226 63.1663 33.2175 63.1663C32.3124 63.1663 30.9547 63.0786 30.1956 62.9616C29.4365 62.8447 28.5606 62.6692 28.254 62.5523C27.9474 62.4499 27.6846 62.3037 27.6846 62.216C27.6846 62.1429 28.0642 61.9675 28.5314 61.8213Z" fill="#1D1D1F"/>
<path d="M46.254 70.9295C46.619 70.8271 47.3051 70.6956 47.7868 70.6371C48.2686 70.5786 49.4657 70.5055 50.4438 70.5055C51.4365 70.4909 52.7503 70.5494 53.3635 70.6371C53.9912 70.7248 54.8817 70.9002 55.3489 71.0464C55.8014 71.178 56.1664 71.3535 56.1372 71.4266C56.108 71.5143 55.7576 71.6897 55.3635 71.8213C54.9693 71.9529 53.9182 72.1429 53.0423 72.2453C52.0496 72.3476 50.6919 72.3915 49.5387 72.333C48.4876 72.2745 47.2175 72.1429 46.6919 72.0406C46.1664 71.9236 45.5387 71.7336 44.8671 71.3827L45.2321 71.2365C45.4365 71.1634 45.889 71.0172 46.254 70.9295Z" fill="#1D1D1F"/>
</svg>
