<svg width="100" height="100" viewBox="0 0 100 100" fill="none" xmlns="http://www.w3.org/2000/svg">
<path d="M0 100V50V0H100V100H0Z" fill="#141615"/>
<path d="M0 100V50V0H100V100H0Z" fill="#1D1D1F"/>
<path d="M43.7178 33.9452C44.4488 30.4072 45.1506 27.0154 45.2822 26.416C45.4576 25.568 45.5453 25.378 45.633 25.6119C45.7061 25.7727 46.6857 29.7932 47.7968 34.53C48.9225 39.2669 50.0775 44.1499 50.3553 45.3487C50.6477 46.5622 51.0863 48.4043 51.3348 49.4423C51.5833 50.4803 51.8465 51.5914 52.0512 52.4394L53.3377 51.9716C54.5219 51.5183 54.7266 51.4891 56.5102 51.4891C58.0892 51.4891 58.5716 51.5476 59.3611 51.8107C59.8874 51.9862 60.7208 52.4102 61.2325 52.7318C61.7295 53.0534 62.4167 53.5944 62.7675 53.9452C63.1038 54.2815 63.6594 54.954 63.9956 55.4365C64.3319 55.9335 64.7266 56.7815 64.9167 57.4102C65.1213 58.0827 65.2091 58.6675 65.1506 58.9452C65.1067 59.1792 64.902 59.6909 64.6974 60.0856C64.4927 60.4657 64.3319 60.802 64.3319 60.8458C64.3319 60.8897 64.8289 60.9189 66.5249 60.9189L66.4518 50.9335L65.7939 50.7727C65.4284 50.685 64.8436 50.4365 64.4781 50.2172C64.1126 50.0125 63.5278 49.5447 63.1769 49.1938C62.826 48.8575 62.3143 48.2435 62.0512 47.8341C61.7734 47.4394 61.4079 46.7084 61.2032 46.2259C61.0132 45.7435 60.7354 44.7932 60.6038 44.1061C60.4137 43.185 60.3699 42.454 60.4284 41.2552C60.4722 40.2025 60.6184 39.2961 60.8231 38.6236C60.9985 38.068 61.3787 37.147 61.6711 36.5768C61.9781 36.0213 62.5775 35.1733 63.0161 34.7055C63.5278 34.1499 64.1418 33.6967 64.6974 33.4189C65.1798 33.185 65.8377 32.9365 66.1594 32.878C66.481 32.8049 67.095 32.761 67.519 32.7903C67.9284 32.8195 68.5863 32.9511 68.981 33.0827C69.3611 33.2142 69.9313 33.5066 70.2529 33.7406C70.5746 33.9745 70.9693 34.2815 71.1301 34.4131C71.2909 34.5593 71.6711 34.9686 71.9635 35.3341C72.2558 35.6996 72.6944 36.416 72.943 36.9423C73.1915 37.4686 73.5278 38.4189 73.6886 39.0622C73.9079 39.8955 73.9956 40.6996 73.9956 41.84C73.9956 42.761 73.9079 43.8575 73.7909 44.3985C73.6594 44.9248 73.4254 45.6996 73.2646 46.1236C73.0892 46.533 72.6798 47.3224 72.3436 47.8634C71.9927 48.3897 71.4225 49.0914 71.057 49.4131C70.6915 49.7201 70.1067 50.1294 69.7412 50.3195C69.3757 50.5096 68.8056 50.7289 67.8406 50.9774V60.9189H75.8085L75.6915 61.3868C75.633 61.6499 75.3114 62.4686 75.0044 63.185C74.6827 63.9014 74.0833 65.0563 73.674 65.7435C73.2792 66.4306 72.5921 67.4394 72.1535 68.0096C71.7295 68.5797 70.8231 69.5593 70.1506 70.2025C69.4927 70.8604 68.5132 71.6792 67.9868 72.03C67.4605 72.3809 66.5102 72.9218 65.867 73.2289C65.2237 73.5359 64.1711 73.9306 63.5278 74.1061C62.5336 74.3838 61.9634 74.4277 59.7266 74.4277C57.4751 74.4423 56.8757 74.3985 55.5599 74.0914C54.712 73.9014 53.367 73.5213 52.5629 73.2435C51.7588 72.9657 50.443 72.4248 49.6389 72.0447C48.8348 71.6645 47.5482 70.9628 46.788 70.4949C46.0278 70.0417 44.7412 69.1938 43.9371 68.6236C43.133 68.0534 41.8904 67.1324 41.1594 66.5768C40.443 66.0359 39.6243 65.4072 39.3465 65.1879C39.0833 64.9686 38.4547 64.5154 37.9576 64.1792C37.4751 63.8283 36.6418 63.4189 36.1155 63.2727C35.5892 63.1119 34.5804 62.878 33.8494 62.7464C33.133 62.6148 31.5833 62.454 30.4137 62.3809C29.2442 62.3078 27.1535 62.2347 23.25 62.2347V60.9189H27.4167C31.3202 60.9189 31.5833 60.9043 31.481 60.6704C31.4225 60.5242 31.3494 59.954 31.3202 59.3838C31.2909 58.8137 31.3494 57.9657 31.4371 57.4832C31.5249 57.0008 32.095 54.3985 32.6798 51.7084C33.2792 49.0183 34.1857 44.9394 34.712 42.6441C35.2383 40.3487 35.9254 37.3224 36.2617 35.9189C36.5833 34.5154 36.8904 33.2581 36.9196 33.1411C36.9634 33.0242 37.0219 32.9511 37.0658 32.9949C37.1096 33.0388 37.4605 34.4131 37.8553 36.0651C38.2354 37.7172 38.864 40.3487 39.2442 41.9131C39.6096 43.4774 40.0629 45.378 40.2529 46.1236C40.4284 46.8692 40.6477 47.4832 40.7208 47.4832C40.8085 47.4832 41.2032 45.8897 41.6272 43.9306C42.0512 41.9716 42.9868 37.4832 43.7178 33.9452Z" fill="#FFFEFF"/>
<path d="M43.8667 39.7206C44.5246 36.6212 45.1532 33.551 45.2702 32.8931V32.8785C45.4018 32.2206 45.5626 31.6797 45.6357 31.6797C45.7088 31.6797 45.8257 31.9282 45.8988 32.2206C45.9866 32.5276 46.5713 35.0128 47.2145 37.7466L47.2146 37.7469C47.8579 40.4809 48.6912 43.9604 49.0567 45.4955C49.4222 47.0159 49.9778 49.3697 50.8842 53.1709L50.0655 54.0042C49.5538 54.5306 49.0275 55.2908 48.662 56.0218C48.1942 56.9721 48.0626 57.3961 48.0041 58.2879C47.9456 59.1066 47.9895 59.5306 48.1649 59.9692C48.2965 60.2908 48.3988 60.6417 48.3988 60.7294C48.3988 60.8756 47.7556 60.9195 42.9895 60.9195L43.0772 59.5598C43.1503 58.2733 43.1065 58.0393 41.3959 50.9048L42.0392 48.1271C42.4047 46.592 43.2234 42.82 43.8667 39.7206Z" fill="#1D1D1F"/>
<path d="M64.9924 34.7791C65.2994 34.5744 65.8696 34.3259 66.2351 34.2235C66.6006 34.1212 67.1854 34.0773 67.5509 34.1212C67.9164 34.1651 68.6035 34.3844 69.086 34.6183C69.5684 34.8522 70.1679 35.2616 70.431 35.5247C70.6796 35.7879 71.1328 36.4019 71.4252 36.8844C71.7029 37.3668 72.0684 38.1563 72.2293 38.6388C72.3901 39.1212 72.5655 40.013 72.6532 40.6124C72.7263 41.2703 72.7263 42.2352 72.6532 42.9809C72.5801 43.7265 72.3462 44.7499 72.1123 45.3931C71.8784 46.0218 71.4983 46.8259 71.2497 47.1914C71.0158 47.5569 70.4895 48.1271 70.0948 48.4779C69.7 48.8288 69.0275 49.2382 68.6035 49.399C68.1942 49.5452 67.5509 49.6768 67.1854 49.6768C66.8199 49.6768 66.1474 49.5306 65.6796 49.3551C65.1094 49.1358 64.5831 48.7703 64.0275 48.2148C63.4817 47.6787 63.0382 47.0452 62.6971 46.3142C62.4047 45.7148 62.0684 44.7352 61.9369 44.1504C61.8053 43.5803 61.7029 42.5569 61.7029 41.8844C61.7029 41.2265 61.8053 40.2323 61.9222 39.6621C62.0392 39.092 62.3901 38.1124 62.7117 37.4692C63.0333 36.8259 63.545 36.0364 63.8521 35.7294C64.1591 35.4224 64.6708 34.9838 64.9924 34.7791Z" fill="#1D1D1F"/>
<path d="M34.9486 47.5569C35.6796 44.3405 36.4252 41.0657 36.6006 40.2762C36.776 39.5013 36.9807 38.8727 37.0538 38.8873C37.1269 38.9165 38.2234 43.3025 39.4953 48.6534C41.0889 55.32 41.8199 58.6388 41.8199 59.2089C41.8199 59.6768 41.7176 60.2616 41.3813 60.9341H33.4866L33.048 60.4955C32.6532 60.1007 32.6094 59.9545 32.6094 59.1797C32.6094 58.6972 32.8433 57.206 33.1211 55.8464C33.3988 54.5013 34.2176 50.7733 34.9486 47.5569Z" fill="#1D1D1F"/>
<path d="M52.8141 53.5803C53.2819 53.361 54.0421 53.0978 54.4953 52.9809C54.9632 52.8639 55.8696 52.7616 56.5129 52.7616C57.1562 52.7469 58.0772 52.8493 58.5597 52.9809C59.0421 53.0978 59.7585 53.3756 60.1679 53.5949C60.5626 53.8142 61.3228 54.4136 61.8491 54.9399C62.4486 55.5393 62.9895 56.2703 63.3111 56.9136C63.6474 57.5861 63.8228 58.1271 63.8228 58.5364C63.8228 59.0189 63.6912 59.3405 62.6532 60.861H50.2263L49.7439 60.13C49.2907 59.4721 49.2468 59.3259 49.3053 58.5218C49.3491 57.9224 49.51 57.323 49.8462 56.6212C50.1679 55.9487 50.6065 55.32 51.162 54.7937C51.6152 54.3551 52.3608 53.7996 52.8141 53.5803Z" fill="#1D1D1F"/>
<path d="M39.1445 62.5276C39.6123 62.5276 40.2848 62.4692 40.6503 62.4107C41.0158 62.3376 48.6328 62.2791 57.5655 62.2645C71.9369 62.2499 73.8374 62.2791 73.8374 62.4692C73.8374 62.5861 73.5597 63.2294 73.2088 63.8873C72.8725 64.5598 72.2731 65.554 71.9076 66.1241C71.5421 66.6943 70.9866 67.4399 70.6649 67.8054C70.3579 68.1709 69.7146 68.8434 69.2322 69.3259C68.7497 69.7937 67.9603 70.4662 67.4778 70.8025C66.9953 71.1534 66.045 71.6943 65.3579 72.0159C64.6708 72.3376 63.6912 72.7177 63.1649 72.8639C62.4047 73.0832 61.7176 73.1417 59.7293 73.1417C57.8872 73.1417 56.9222 73.0686 56.0012 72.8785C55.3141 72.7323 54.0714 72.3814 53.2234 72.1037C52.3755 71.8113 51.0158 71.2557 50.1825 70.861C49.3638 70.4662 48.0772 69.7645 47.3316 69.3113C46.6006 68.8581 45.2263 67.937 44.3053 67.2645C43.3842 66.6066 41.6737 65.3347 40.5041 64.4428C39.3345 63.5657 38.3696 62.7762 38.3404 62.6885C38.3257 62.6007 38.662 62.5423 39.1445 62.5276Z" fill="#1D1D1F"/>
</svg>
