<svg width="100" height="100" viewBox="0 0 100 100" fill="none" xmlns="http://www.w3.org/2000/svg">
<path d="M0 100V50V0H100.155V100H0Z" fill="#1D1D1F"/>
<path d="M39.056 28.7588C39.9553 28.1541 42.0173 26.7278 43.6297 25.6115C45.2576 24.4952 46.6684 23.6115 46.7615 23.658C46.87 23.7045 54.2188 23.7355 79.2111 23.7355V25.1309H64.2808C56.0638 25.1309 49.2886 25.1774 49.2421 25.2394C49.1801 25.3169 49.5367 25.627 50.0328 25.9526C50.5134 26.2782 53.3971 28.2782 56.4204 30.4022C59.4436 32.5417 62.0638 34.3712 62.2343 34.4952C62.4049 34.6192 64.3894 36.0301 66.6529 37.6115C68.9165 39.1929 71.4436 40.9603 72.2653 41.534C73.1025 42.1076 73.7692 42.6658 73.7847 42.7588C73.7847 42.9138 72.932 42.9603 66.1878 42.9603L66.2653 64.9913L79.9087 65.0534V66.4487L66.2653 66.5107L66.1878 76.1386L64.87 76.0611L64.8235 71.3014C64.808 68.6658 64.746 66.5262 64.6839 66.5262C64.6064 66.5107 63.6142 66.4952 60.3739 66.4487L60.2963 48.8518H52.6219L52.6994 66.5262L25.9553 66.4487L25.8777 42.9603H22.4669C20.3429 42.9603 19.025 42.8983 18.9785 42.8053C18.932 42.7123 19.7227 42.0921 20.7149 41.3944C21.7227 40.7123 23.8312 39.2549 25.4126 38.1696C26.994 37.0844 30.3429 34.7743 32.8545 33.0379C35.3661 31.3014 38.1568 29.3789 39.056 28.7588Z" fill="#FDFEFE"/>
<path d="M73.9243 32.0611C74.0793 31.7975 74.8855 30.3247 75.7227 28.8053C76.5599 27.2859 77.2576 26.0611 77.2731 26.0921C77.2886 26.1231 78.0638 27.534 78.994 29.2394C79.9242 30.9293 80.6994 32.3867 80.7305 32.4487C80.746 32.5107 80.1413 32.5727 77.9708 32.5727V55.9836H79.3661C80.1413 55.9836 80.7615 56.0146 80.7615 56.0611C80.7615 56.1076 80.1103 57.3014 79.3041 58.7278C78.5134 60.1696 77.7227 61.6115 77.2421 62.5727L75.8002 59.9371C75.0095 58.4797 74.2033 57.0068 73.6297 55.9836H76.5754V32.5727H73.6297L73.9243 32.0611Z" fill="#FDFEFE"/>
<path d="M33.4901 74.0456C33.4591 73.9526 34.7925 73.1464 36.4514 72.2316C38.0948 71.3169 39.5367 70.5727 39.6452 70.5572C39.7847 70.5572 39.8312 70.9293 39.8312 73.3479H55.1801V71.9526C55.1801 71.1774 55.2266 70.5572 55.3041 70.5572C55.3661 70.5572 55.9243 70.8363 56.5444 71.1774C57.1491 71.5185 57.6917 71.751 57.7382 71.6735C57.7847 71.6115 57.8157 71.627 57.8157 71.72C57.8157 71.7975 58.6529 72.3247 59.6762 72.8828C60.6994 73.441 61.5211 73.9526 61.4901 74.0301C61.4746 74.0921 60.0948 74.9138 58.4359 75.8441C56.777 76.7743 55.3661 77.534 55.3041 77.534C55.2266 77.534 55.1801 76.8983 55.1801 74.7433H39.8312V76.0611C39.8312 76.7898 39.7847 77.4099 39.7227 77.4409C39.6452 77.4875 38.2343 76.7588 36.5599 75.8596C34.901 74.9448 33.5211 74.1231 33.4901 74.0456Z" fill="#FDFEFE"/>
<path d="M34.5625 58.4655V52.8841V47.3027H47.4307V58.4655H34.5625Z" fill="#1D1D1F"/>
</svg>
