<svg width="100" height="100" viewBox="0 0 100 100" fill="none" xmlns="http://www.w3.org/2000/svg">
<path d="M0 100V50V0H100V100H0Z" fill="#1D1D1F"/>
<path fill-rule="evenodd" clip-rule="evenodd" d="M50.4001 14.4122C50.7012 14.3963 51.2242 14.4757 51.557 14.5551C51.874 14.6503 52.3969 14.9519 52.7139 15.2376C53.0309 15.5074 53.3954 15.9995 53.5063 16.3011C53.6331 16.6027 53.6806 16.9043 53.6172 16.9678C53.538 17.0154 53.2369 17.1106 52.9358 17.1741C52.4445 17.2693 52.3652 17.2376 52.2702 16.9043C52.2068 16.7138 51.969 16.3328 51.7155 16.0947C51.3351 15.7297 51.145 15.6503 50.4477 15.6662C49.7503 15.6662 49.5126 15.7455 49.1006 16.1106C48.7678 16.4122 48.4984 16.8566 48.3557 17.3487C48.2131 17.8408 48.1656 18.5074 48.2131 19.1582C48.2606 19.7297 48.4033 20.4281 48.5459 20.7138C48.7044 20.9836 49.053 21.3646 49.3383 21.5392C49.6077 21.7138 50.099 21.8566 50.4001 21.8566C50.7012 21.8566 51.1925 21.7138 51.4778 21.5392C51.7472 21.3646 52.0958 21.0154 52.2226 20.7455C52.3494 20.4757 52.4603 20.1582 52.4603 20.0312C52.4603 19.8408 52.603 19.809 53.1418 19.8884C53.5063 19.9519 53.8391 20.0154 53.8866 20.0471C53.9342 20.0789 53.8391 20.4122 53.6965 20.7932C53.538 21.1582 53.1576 21.7297 52.8248 22.063C52.492 22.3963 51.969 22.7455 51.6679 22.8408C51.351 22.936 50.6378 22.9678 50.0039 22.9201C49.1006 22.8408 48.7678 22.7455 48.2606 22.3646C47.912 22.0947 47.4524 21.5392 47.2464 21.1265C46.9611 20.5551 46.8343 19.9995 46.7868 19.0789C46.7234 18.1106 46.7868 17.6027 47.0087 16.936C47.1671 16.4598 47.4841 15.8566 47.706 15.6027C47.9278 15.3487 48.3082 15.0312 48.5459 14.9043C48.7836 14.7773 49.1798 14.6185 49.4175 14.5392C49.6553 14.4757 50.099 14.4122 50.4001 14.4122ZM25.7091 24.1106C25.7725 24.1424 27.3573 25.682 32.6505 30.9043H67.4366L74.3621 24.0154L74.8217 24.4757C75.0752 24.7455 75.2654 24.9995 75.2496 25.063C75.2179 25.1265 73.6806 26.6979 68.4667 31.936V66.8566L71.874 70.2693C73.7599 72.1424 75.2971 73.7138 75.2971 73.7614C75.2971 73.809 75.0911 74.0312 74.4096 74.7138L67.595 67.8884H32.5079L25.7567 74.7138L25.3129 74.2693C25.0752 74.0312 24.8851 73.7773 24.8851 73.682C24.8851 73.5868 26.4223 71.9836 31.6996 66.6979V31.936L24.7424 24.9519L25.1545 24.5074C25.3922 24.2693 25.6299 24.0947 25.7091 24.1106ZM50.1307 25.7614C50.2258 25.7932 50.7329 26.6503 52.1434 29.4757L51.1608 29.4916C50.6061 29.5074 49.7345 29.4916 49.2115 29.4757C48.6885 29.4598 48.2448 29.4122 48.229 29.3805C48.1973 29.3487 48.5776 28.4916 49.053 27.5074C49.6077 26.3646 50.0039 25.7138 50.1307 25.7614ZM20.6854 45.6185C21.034 45.6662 21.4936 45.7932 21.7155 45.9043C21.9374 46.0154 22.286 46.3011 22.5079 46.5551C22.7297 46.809 22.9675 47.2693 23.0309 47.5709C23.0942 47.8725 23.0784 48.3011 22.9992 48.5233C22.9199 48.7455 22.7139 49.0947 22.5237 49.317C22.1909 49.7138 22.1909 49.7138 22.5079 49.9201C22.6822 50.0154 22.9358 50.3328 23.0625 50.5868C23.1893 50.8408 23.3003 51.3646 23.3003 51.7455C23.3003 52.1741 23.1893 52.6027 22.9516 52.9678C22.7456 53.2693 22.3019 53.6662 21.9532 53.8408C21.4936 54.0789 21.0182 54.1582 20.2099 54.1424C19.5285 54.1424 18.9104 54.0471 18.6251 53.8884C18.3716 53.7614 17.9595 53.4281 17.7218 53.1424C17.4683 52.8725 17.2305 52.4598 17.183 52.2217C17.1354 51.9678 17.1513 51.7297 17.2305 51.682C17.2939 51.6185 17.595 51.5392 17.8803 51.4757C18.3399 51.3963 18.4033 51.4281 18.5935 51.8725C18.6885 52.1582 18.958 52.5074 19.1798 52.6503C19.4017 52.809 19.7503 52.9519 19.9722 52.9678C20.1941 52.9836 20.5269 52.9995 20.7329 52.9836C20.9389 52.9678 21.2717 52.7932 21.4778 52.5709C21.7313 52.3328 21.874 51.9836 21.874 51.6979C21.874 51.4439 21.8264 51.1106 21.763 50.9678C21.6838 50.8249 21.4461 50.6027 21.2083 50.4916C20.9548 50.3646 20.4793 50.2693 20.1307 50.2693C19.5126 50.2693 19.4968 50.2535 19.5443 49.7614C19.576 49.2693 19.6236 49.2376 20.2575 49.1424C20.7223 49.0789 21.0604 48.9201 21.2717 48.6662C21.4936 48.3805 21.557 48.1582 21.4778 47.809C21.4302 47.5551 21.2559 47.2059 21.1133 47.0471C20.9548 46.8884 20.622 46.7614 20.2892 46.7614C19.9722 46.7614 19.5443 46.9043 19.3066 47.0947C19.053 47.2693 18.8312 47.5551 18.7836 47.7297C18.7202 47.9678 18.5776 48.0471 18.1973 48.0471C17.912 48.0471 17.5792 47.9836 17.4841 47.9201C17.3415 47.8408 17.3732 47.6344 17.6426 47.1106C17.8328 46.7297 18.1656 46.2852 18.3874 46.1265C18.6093 45.9678 19.0689 45.7773 19.4175 45.682C19.7662 45.6027 20.3367 45.5709 20.6854 45.6185ZM78.6568 45.8884C80.1148 45.9519 80.9865 46.063 81.3034 46.2217C81.557 46.3487 81.9057 46.6185 82.0641 46.8249C82.2226 47.0154 82.3969 47.4598 82.4603 47.809C82.5554 48.3011 82.5079 48.6027 82.2385 49.1582C81.969 49.7138 81.9215 49.9201 82.08 50.1106C82.1751 50.2376 82.3969 50.5709 82.5871 50.8249C82.8248 51.19 82.8882 51.4598 82.8248 52.0154C82.7773 52.4122 82.6188 52.9043 82.4445 53.1265C82.286 53.3487 81.9057 53.6662 81.6045 53.8249C81.1291 54.0947 80.7488 54.1424 76.1529 54.1582L76.0895 50.1265C76.0261 46.7455 76.0578 46.063 76.248 45.9519C76.3748 45.8725 77.4524 45.8408 78.6568 45.8884ZM29.6077 48.063C29.7028 48.0471 29.8137 48.0947 29.8137 48.1741C29.8296 48.2376 29.8454 48.6027 29.8613 48.9995C29.8771 49.5868 29.9405 49.7138 30.1941 49.7297C30.3684 49.7455 30.6061 49.7614 30.7171 49.7773C30.8122 49.7773 30.9072 49.8725 30.9072 49.9519C30.9072 50.0471 30.6695 50.1265 30.4001 50.1582C29.893 50.19 29.8771 50.2059 29.8771 50.936C29.8771 51.3328 29.8296 51.7138 29.7662 51.7614C29.687 51.809 28.8629 51.4598 27.8961 50.9836C26.9453 50.5074 26.1212 50.063 26.0736 49.9995C26.0419 49.9201 26.7709 49.4598 27.706 48.9678C28.641 48.4757 29.4968 48.063 29.6077 48.063ZM70.6061 48.0471C70.6537 48.0471 71.2084 48.317 71.8423 48.6503C72.4603 48.9836 73.2369 49.3487 73.538 49.4757C73.8391 49.5868 74.1877 49.7455 74.2987 49.8249C74.4255 49.9096 73.8549 50.2852 72.5871 50.9519C71.3193 51.6027 70.622 51.8884 70.511 51.7773C70.4318 51.6979 70.3526 50.8884 70.3367 49.9995C70.3209 49.0947 70.3684 48.3011 70.4318 48.2059C70.4952 48.1265 70.5744 48.0471 70.6061 48.0471ZM50.2258 70.3487C50.3684 70.4122 50.7012 70.4916 50.9548 70.5074C51.2242 70.5392 51.5887 70.5709 51.7947 70.5709C52.1275 70.5868 52.0958 70.682 51.1925 72.4916C50.6695 73.5392 50.1941 74.3963 50.1307 74.3963C50.0515 74.3963 49.5919 73.5709 49.1006 72.5709C48.5935 71.5709 48.2131 70.6979 48.2448 70.6344C48.2765 70.5551 48.6727 70.5233 49.1164 70.5551C49.6077 70.5709 49.9405 70.5233 49.9564 70.4122C49.9564 70.3011 50.0831 70.2852 50.2258 70.3487ZM53.5697 76.4598C54.061 76.4598 54.7107 76.5868 55.0752 76.7455C55.4239 76.9043 55.931 77.317 56.2004 77.6662C56.4698 77.9995 56.7868 78.5392 56.9136 78.8408C57.0562 79.19 57.1354 79.9201 57.1196 80.8249C57.1196 81.9043 57.0245 82.4281 56.7868 82.9678C56.6125 83.3646 56.2163 83.9201 55.8993 84.2058C55.5665 84.4757 55.0435 84.7773 54.7266 84.8725C54.3938 84.9519 53.8708 85.0312 53.5697 85.0312C53.2686 85.0312 52.7456 84.9519 52.4286 84.8725C52.0958 84.7773 51.6204 84.4916 51.351 84.2376C51.0974 83.9836 50.7329 83.4757 50.5586 83.1265C50.3843 82.7773 50.1941 82.2059 50.0039 81.2217H48.3399V84.8725H46.9136V76.6185H48.3399L48.4191 80.0312L50.0039 80.1265L50.2099 79.2852C50.305 78.8249 50.5903 78.1582 50.8438 77.8249C51.0816 77.4757 51.5887 77.0312 51.9849 76.8249C52.4762 76.5709 52.9516 76.4598 53.5697 76.4598Z" fill="#FDFEFE"/>
<path fill-rule="evenodd" clip-rule="evenodd" d="M33.125 32.332H35.0267L35.106 36.0622H40.3358L40.3675 32.332H67.0394V37.4114L64.1076 37.4908L64.0283 54.3955H67.0394V58.5225L52.3802 58.6019L52.3009 66.459H50.8746V62.4908L33.2042 62.4114L33.125 55.8241H41.0489V54.3162C41.0489 53.0781 41.0014 52.8082 40.8112 52.8082C40.6052 52.8082 40.5735 51.9828 40.5735 46.3003C40.5735 40.6495 40.6052 39.7765 40.8112 39.713C41.0014 39.6495 41.0489 39.332 41.0489 36.7765H33.125V32.332ZM36.4531 32.332H38.957L38.9095 34.6336L36.4531 34.713V32.332ZM66.041 38.84C66.2312 38.84 66.4372 38.8876 66.4531 38.967C66.4847 39.0304 66.3738 40.1257 66.1836 41.4114C65.9935 42.6971 65.7557 43.84 65.6448 43.9511C65.4863 44.1098 65.4388 43.6654 65.4229 41.6019C65.4071 40.205 65.4546 38.9987 65.5339 38.9511C65.6131 38.8876 65.835 38.84 66.041 38.84ZM33.6797 39.7923C33.8065 39.7923 33.9491 39.9511 33.9966 40.1416C34.0283 40.3479 34.06 43.2685 34.0759 46.6495C34.0759 52.6971 34.0759 52.8082 33.7589 52.8082C33.442 52.8082 33.442 52.6971 33.442 46.3003C33.442 40.6177 33.4737 39.7923 33.6797 39.7923ZM39.1472 39.7923V52.8082L35.5022 52.7289V46.3797C35.4863 42.8876 35.4863 39.9828 35.5022 39.9035C35.5022 39.84 36.3263 39.7923 39.1472 39.7923ZM66.9602 46.3003C67.0077 46.3003 67.0394 47.7923 67.0394 52.967H66.4847C66.1519 52.967 65.9301 52.8876 65.9301 52.7606C65.9301 52.6654 66.1044 51.3955 66.3263 49.9511C66.5323 48.5066 66.7542 47.0939 66.8017 46.8082C66.8493 46.5384 66.9285 46.3003 66.9602 46.3003ZM77.499 47.0939H78.7985C79.5434 47.0939 80.2882 47.1892 80.5101 47.3003C80.8271 47.459 80.9222 47.6336 80.938 48.1733C80.9855 48.713 80.9222 48.8876 80.621 49.0781C80.3833 49.2527 79.8603 49.3162 77.499 49.3162V47.0939ZM77.499 50.586H79.0838C80.5577 50.586 80.7003 50.6177 81.0648 50.9828C81.2867 51.205 81.461 51.5384 81.461 51.7289C81.4768 51.9352 81.3342 52.2685 81.1599 52.4908C80.8746 52.8717 80.7637 52.8876 77.499 52.967V50.586ZM60.4626 59.9511C63.2676 59.9511 64.3294 59.9987 64.2977 60.1257C64.2819 60.2209 63.3944 60.7606 60.3833 62.332L58.4023 61.3003C57.3088 60.7289 56.4531 60.205 56.5006 60.1098C56.564 60.0146 58.0537 59.9511 60.4626 59.9511ZM53.9808 60.586C54.0125 60.586 54.4562 60.8082 54.9475 61.0781C55.4546 61.3638 56.4372 61.8717 57.1345 62.2209C57.8318 62.5701 58.4974 62.9352 58.6084 63.0304C58.7668 63.1574 58.2597 63.4908 56.4689 64.4273C55.1852 65.1098 54.0283 65.6654 53.9174 65.6654C53.7748 65.6654 53.7272 65.0939 53.7272 63.3638C53.7272 62.0939 53.7748 60.9511 53.8223 60.8241C53.8699 60.6971 53.9491 60.586 53.9808 60.586ZM66.9126 60.586C66.9919 60.586 67.0394 61.7606 67.0394 65.8241L66.041 65.2844C65.5022 64.9987 64.3928 64.4114 63.5846 63.9828C62.7763 63.5543 62.1266 63.1733 62.1266 63.1257C62.1266 63.0781 63.1725 62.4908 64.4721 61.8241C65.7557 61.1416 66.8493 60.586 66.9126 60.586ZM49.4483 63.9193V64.8717C49.4483 65.3955 49.4008 65.8241 49.3215 65.8241C49.2581 65.8241 47.3881 65.459 45.1694 65.0146C42.9507 64.5701 41.0648 64.1257 40.9697 64.0622C40.8746 63.967 42.602 63.9193 49.4483 63.9193ZM60.4309 63.9352L62.4277 64.9828C63.5212 65.5543 64.4879 66.0939 64.583 66.1733C64.6781 66.2527 62.9031 66.3003 60.4784 66.3003C57.7209 66.3003 56.247 66.2527 56.358 66.1416C56.4372 66.0622 57.3881 65.5384 58.4657 64.967L60.4309 63.9352ZM33.3152 64.0781C33.4261 64.0781 35.629 64.5066 38.1963 65.0304C40.7637 65.5543 43.0141 66.0304 43.1884 66.0781C43.3627 66.1257 43.442 66.205 43.3786 66.2685C43.2993 66.332 40.9855 66.3638 33.2042 66.3003L33.1567 65.1892C33.125 64.3638 33.1567 64.0781 33.3152 64.0781ZM53.6004 77.7289C54.06 77.7289 54.5196 77.84 54.7573 77.9987C54.995 78.1574 55.2962 78.6019 55.4388 78.9987C55.6131 79.4431 55.7082 80.1416 55.6924 80.9035C55.6765 81.7289 55.5814 82.2685 55.3754 82.6971C55.1694 83.1098 54.8524 83.4273 54.4404 83.6336C53.9649 83.8717 53.6638 83.9352 53.2518 83.84C52.9507 83.7765 52.5069 83.5225 52.2851 83.3003C52.0473 83.0622 51.7779 82.6019 51.6828 82.2527C51.5878 81.9035 51.5085 81.1416 51.5085 80.586C51.5085 79.9352 51.6195 79.3162 51.7938 78.9193C51.9523 78.5701 52.2534 78.1574 52.4594 77.9987C52.713 77.8241 53.1408 77.7289 53.6004 77.7289Z" fill="#1D1D1F"/>
<path d="M42.3101 46.4606V42.0955V37.7305H47.5399V46.4606H42.3101Z" fill="#FDFEFE"/>
<path d="M33.9107 57.6511C34.085 57.2702 34.4495 56.8733 34.814 56.667C35.1785 56.4448 35.6857 56.3019 36.1294 56.3019C36.6207 56.3019 37.0169 56.413 37.3814 56.6511C37.6825 56.8575 38.0787 57.2702 38.253 57.5717C38.4749 57.9527 38.57 58.3813 38.5383 58.9209C38.5224 59.5082 38.4115 59.8575 38.1104 60.2384C37.8885 60.5082 37.5082 60.8575 37.2388 60.9844C36.9693 61.1114 36.4305 61.2225 36.0026 61.2225C35.543 61.2225 35.0518 61.0955 34.7348 60.9051C34.4654 60.7305 34.085 60.3019 33.9107 59.9527C33.7364 59.6035 33.5938 59.0797 33.5938 58.8098C33.5938 58.5241 33.7364 58.0003 33.9107 57.6511Z" fill="#FDFEFE"/>
<path d="M43.7409 45.0332V42.0967V39.1602H46.118V45.0332H43.7409Z" fill="#1D1D1F"/>
<path d="M35.0245 58.7951C35.0087 58.5887 35.1672 58.2713 35.3573 58.0649C35.5951 57.8268 35.8328 57.7316 36.1814 57.7633C36.4667 57.7951 36.7836 57.9697 36.958 58.2078C37.164 58.4617 37.2432 58.7316 37.1798 58.9697C37.1323 59.1602 36.9738 59.43 36.8312 59.557C36.7044 59.684 36.3716 59.7951 36.118 59.7951C35.8645 59.7951 35.5158 59.6522 35.3415 59.4776C35.1672 59.303 35.0245 59.0014 35.0245 58.7951Z" fill="#1D1D1F"/>
</svg>
