<svg width="840" height="840" viewBox="0 0 840 840" fill="none" xmlns="http://www.w3.org/2000/svg">
<path d="M420.005 817.604C639.594 817.604 817.606 639.592 817.606 420.003C817.606 200.414 639.594 22.4023 420.005 22.4023C200.416 22.4023 22.4043 200.414 22.4043 420.003C22.4043 639.592 200.416 817.604 420.005 817.604Z" stroke="white" stroke-opacity="0.01" stroke-width="2.09767" stroke-miterlimit="10"/>
<path d="M420.005 795.663C627.476 795.663 795.665 627.474 795.665 420.003C795.665 212.532 627.476 44.3438 420.005 44.3438C212.534 44.3438 44.3457 212.532 44.3457 420.003C44.3457 627.474 212.534 795.663 420.005 795.663Z" stroke="white" stroke-opacity="0.02" stroke-width="2.09767" stroke-miterlimit="10"/>
<path d="M420.005 773.73C615.363 773.73 773.732 615.361 773.732 420.004C773.732 224.646 615.363 66.2773 420.005 66.2773C224.648 66.2773 66.2793 224.646 66.2793 420.004C66.2793 615.361 224.648 773.73 420.005 773.73Z" stroke="white" stroke-opacity="0.03" stroke-width="2.09767" stroke-miterlimit="10"/>
<path d="M420.005 751.788C603.245 751.788 751.79 603.243 751.79 420.003C751.79 236.764 603.245 88.2188 420.005 88.2188C236.766 88.2188 88.2207 236.764 88.2207 420.003C88.2207 603.243 236.766 751.788 420.005 751.788Z" stroke="white" stroke-opacity="0.04" stroke-width="2.09767" stroke-miterlimit="10"/>
<path d="M420.004 729.855C591.13 729.855 729.855 591.13 729.855 420.004C729.855 248.877 591.13 110.152 420.004 110.152C248.877 110.152 110.152 248.877 110.152 420.004C110.152 591.13 248.877 729.855 420.004 729.855Z" stroke="white" stroke-opacity="0.05" stroke-width="2.09767" stroke-miterlimit="10"/>
<path d="M420.006 707.922C579.019 707.922 707.924 579.017 707.924 420.004C707.924 260.991 579.019 132.086 420.006 132.086C260.993 132.086 132.088 260.991 132.088 420.004C132.088 579.017 260.993 707.922 420.006 707.922Z" stroke="white" stroke-opacity="0.06" stroke-width="2.09767" stroke-miterlimit="10"/>
<path d="M420.006 685.978C566.9 685.978 685.982 566.896 685.982 420.002C685.982 273.107 566.9 154.025 420.006 154.025C273.111 154.025 154.029 273.107 154.029 420.002C154.029 566.896 273.111 685.978 420.006 685.978Z" stroke="white" stroke-opacity="0.07" stroke-width="2.09767" stroke-miterlimit="10"/>
<path d="M420.006 664.047C554.787 664.047 664.049 554.785 664.049 420.004C664.049 285.223 554.787 175.961 420.006 175.961C285.225 175.961 175.963 285.223 175.963 420.004C175.963 554.785 285.225 664.047 420.006 664.047Z" stroke="white" stroke-opacity="0.08" stroke-width="2.09767" stroke-miterlimit="10"/>
<path d="M420.004 642.114C542.672 642.114 642.114 542.672 642.114 420.004C642.114 297.336 542.672 197.895 420.004 197.895C297.336 197.895 197.895 297.336 197.895 420.004C197.895 542.672 297.336 642.114 420.004 642.114Z" stroke="white" stroke-opacity="0.09" stroke-width="2.09767" stroke-miterlimit="10"/>
<path d="M420.004 620.172C530.554 620.172 620.172 530.554 620.172 420.004C620.172 309.454 530.554 219.836 420.004 219.836C309.454 219.836 219.836 309.454 219.836 420.004C219.836 530.554 309.454 620.172 420.004 620.172Z" stroke="white" stroke-opacity="0.1" stroke-width="2.09767" stroke-miterlimit="10"/>
<path d="M420.004 598.239C518.441 598.239 598.239 518.441 598.239 420.004C598.239 321.568 518.441 241.77 420.004 241.77C321.568 241.77 241.77 321.568 241.77 420.004C241.77 518.441 321.568 598.239 420.004 598.239Z" stroke="white" stroke-opacity="0.11" stroke-width="2.09767" stroke-miterlimit="10"/>
<path d="M420.004 576.298C506.323 576.298 576.298 506.323 576.298 420.004C576.298 333.686 506.323 263.711 420.004 263.711C333.686 263.711 263.711 333.686 263.711 420.004C263.711 506.323 333.686 576.298 420.004 576.298Z" stroke="white" stroke-opacity="0.12" stroke-width="2.09767" stroke-miterlimit="10"/>
<path d="M420.005 554.365C494.21 554.365 554.365 494.21 554.365 420.005C554.365 345.8 494.21 285.645 420.005 285.645C345.8 285.645 285.645 345.8 285.645 420.005C285.645 494.21 345.8 554.365 420.005 554.365Z" stroke="white" stroke-opacity="0.13" stroke-width="2.09767" stroke-miterlimit="10"/>
<path d="M420.005 532.43C482.097 532.43 532.432 482.095 532.432 420.003C532.432 357.911 482.097 307.576 420.005 307.576C357.913 307.576 307.578 357.911 307.578 420.003C307.578 482.095 357.913 532.43 420.005 532.43Z" stroke="white" stroke-opacity="0.14" stroke-width="2.09767" stroke-miterlimit="10"/>
<path d="M420.005 510.488C469.978 510.488 510.49 469.976 510.49 420.003C510.49 370.029 469.978 329.518 420.005 329.518C370.031 329.518 329.52 370.029 329.52 420.003C329.52 469.976 370.031 510.488 420.005 510.488Z" stroke="white" stroke-opacity="0.15" stroke-width="2.09767" stroke-miterlimit="10"/>
<path d="M420.005 488.555C457.865 488.555 488.557 457.863 488.557 420.003C488.557 382.143 457.865 351.451 420.005 351.451C382.145 351.451 351.453 382.143 351.453 420.003C351.453 457.863 382.145 488.555 420.005 488.555Z" stroke="white" stroke-opacity="0.16" stroke-width="2.09767" stroke-miterlimit="10"/>
<path d="M420.005 466.622C445.752 466.622 466.624 445.75 466.624 420.003C466.624 394.257 445.752 373.385 420.005 373.385C394.259 373.385 373.387 394.257 373.387 420.003C373.387 445.75 394.259 466.622 420.005 466.622Z" stroke="white" stroke-opacity="0.17" stroke-width="2.09767" stroke-miterlimit="10"/>
</svg>
