<svg width="24" height="20" viewBox="0 0 24 20" fill="none" xmlns="http://www.w3.org/2000/svg">
<path d="M1.15291 9.09649C1.23148 7.79627 1.2713 7.14509 1.60927 6.51974C1.95248 5.91463 2.47011 5.42701 3.09462 5.1205C3.7415 4.82236 4.48094 4.82236 5.95875 4.82236C6.50983 4.82236 6.78538 4.82236 7.05231 4.77715C7.31632 4.73244 7.57375 4.65507 7.81866 4.54681C8.06622 4.4381 8.29655 4.28634 8.75615 3.98281L8.99294 3.82782C11.7279 2.0228 13.097 1.11976 14.2465 1.51262C14.4672 1.58796 14.6803 1.6956 14.8708 1.83014C15.8632 2.52761 15.9396 4.1518 16.0903 7.39911C16.1394 8.3334 16.1706 9.26855 16.1839 10.204C16.1839 10.7767 16.1463 11.8056 16.0903 13.0079C15.9396 16.2563 15.8643 17.8794 14.8708 18.5779C14.6787 18.7127 14.4686 18.8196 14.2465 18.8955C13.0981 19.2872 11.729 18.3853 8.99187 16.5803L8.75723 16.4253C8.29763 16.1217 8.06837 15.97 7.81974 15.8602C7.57478 15.7523 7.31735 15.6753 7.05338 15.6309C6.78538 15.5857 6.50983 15.5857 5.95875 15.5857C4.47986 15.5857 3.7415 15.5857 3.09569 15.2876C2.47079 14.9812 1.95277 14.4936 1.60927 13.8883C1.2713 13.2619 1.23256 12.6118 1.15291 11.3105C1.12927 10.9422 1.11671 10.5732 1.11523 10.204C1.11523 9.85638 1.12923 9.48182 1.15291 9.09649Z" stroke="#272523" stroke-width="1.61451"/>
<path d="M21.0277 3.74805C21.0277 3.74805 22.6422 5.68545 22.6422 10.2061C22.6422 14.7267 21.0277 16.6641 21.0277 16.6641M18.875 6.97706C18.875 6.97706 19.4132 7.94576 19.4132 10.2061C19.4132 12.4664 18.875 13.4351 18.875 13.4351" stroke="#272523" stroke-width="1.61451" stroke-linecap="round"/>
</svg>
